<svg width="262.3" height="199.23" xmlns="http://www.w3.org/2000/svg" data-name="圖層 1">

 <g>
  <title>Layer 1</title>
  <path id="svg_1" fill="#fff" d="m51.57,105.64a30.36,30.36 0 0 0 -3.75,-11.71a3,3 0 0 0 -1.56,-1.38a7.43,7.43 0 0 0 -6.35,0.2a2.05,2.05 0 0 0 -1.17,2.67c0.36,1.63 0.64,3.28 1,4.92c0.12,0.67 -0.09,1 -0.84,1.07c-2.28,0.36 -4.55,0.7 -6.85,0.91c-0.78,0.07 -0.89,-0.09 -0.74,-0.82a35.65,35.65 0 0 0 0.66,-4.73c0.21,-3.16 0.25,-6.32 0.21,-9.48c0,-0.6 0.17,-0.86 0.77,-1c1.39,-0.25 2.77,-0.57 4.14,-0.88c0.56,-0.13 1.12,-0.5 1.3,0.49c0.07,0.36 0.57,0.53 1,0.67a9,9 0 0 0 3.58,0.36a5.39,5.39 0 0 0 5.4,-6.48a23.92,23.92 0 0 0 -2.57,-8.24a4.86,4.86 0 0 0 -7.08,-1.86a1.66,1.66 0 0 0 -0.86,2c0.39,1.39 0.58,2.83 0.85,4.25c0.17,0.9 -0.16,1.13 -0.89,1.26c-1.76,0.29 -3.51,0.61 -5.26,0.92c-0.54,0.1 -0.87,0 -0.87,-0.65c0,-0.33 -0.11,-0.66 -0.12,-1c-0.14,-3.68 -0.6,-7.33 -1,-11a6.12,6.12 0 0 0 -0.92,-2.95a3.54,3.54 0 0 0 -4,-1.55a3.74,3.74 0 0 0 -2.46,3.52c0.1,3.34 0.3,6.68 0.45,10l0,0a10,10 0 0 1 0,1.34c-0.17,1.06 0.75,2.46 -0.45,3.11a5.73,5.73 0 0 1 -3.4,0.16l-0.22,0a2.21,2.21 0 0 1 -2,-2.77a21.35,21.35 0 0 1 0.62,-2.6c0.67,-2.36 -0.11,-4.14 -2.2,-4.91a3.92,3.92 0 0 0 -5,2a29.86,29.86 0 0 0 -2.42,9.45c-0.2,3.77 0.81,5.66 4.43,6.22a44.33,44.33 0 0 0 9.56,0.36c0.62,0 1.29,-0.25 1.28,0.81a113.08,113.08 0 0 1 -0.66,14c-0.06,0.5 -0.21,0.81 -0.81,0.85c-2.3,0.16 -4.6,0.15 -6.91,0.11c-2.07,0 -2.88,-1.21 -2.36,-3.27c0.25,-1 0.54,-2 0.71,-3a3.35,3.35 0 0 0 -2.44,-4.08a3.75,3.75 0 0 0 -4.72,1.87c-1.46,3.54 -2.63,7.17 -2.49,11.09c0.09,2.74 1.33,4.19 4,4.62a69.3,69.3 0 0 0 14.25,0.35a95.58,95.58 0 0 0 16.67,-2.08c0.56,-0.13 0.84,-0.07 0.72,0.64a12.34,12.34 0 0 1 -0.47,1.71c-0.36,1.15 -0.19,1.45 1,1.83a11.65,11.65 0 0 0 7.13,-0.1a5.08,5.08 0 0 0 3.79,-3.58a10.43,10.43 0 0 0 0.32,-3.64zm-12.8,-33.91a2.46,2.46 0 0 1 1.83,-1.13c0.26,0 0.6,0 0.7,0.35s-0.24,0.51 -0.49,0.62a3.48,3.48 0 0 0 -1.27,0.84c-0.17,0.2 -0.39,0.33 -0.65,0.09a0.51,0.51 0 0 1 -0.12,-0.77zm-24.72,-0.63a2.86,2.86 0 0 0 -1.21,0.71a0.5,0.5 0 0 1 -0.7,0.08a0.62,0.62 0 0 1 -0.08,-0.73a2.12,2.12 0 0 1 1.72,-1.15c0.31,0.08 0.67,0 0.77,0.36s-0.18,0.63 -0.5,0.73zm-4.54,23.55a3.16,3.16 0 0 0 -1.25,0.7c-0.19,0.2 -0.46,0.34 -0.68,0.13a0.62,0.62 0 0 1 -0.08,-0.73a2.18,2.18 0 0 1 1.63,-1.18c0.47,0 0.82,0 0.89,0.46s-0.23,0.51 -0.51,0.62zm17.29,-30.82a2.45,2.45 0 0 0 -1.08,0.73a0.5,0.5 0 0 1 -0.78,0c-0.24,-0.23 -0.15,-0.48 0,-0.71a1.87,1.87 0 0 1 1.76,-1a0.45,0.45 0 0 1 0.49,0.33a0.48,0.48 0 0 1 -0.39,0.65zm15.66,30.59a2.83,2.83 0 0 0 -1.6,0.92c-0.31,0.32 -0.68,0.51 -1.05,0.14a0.81,0.81 0 0 1 0,-1.11a3.93,3.93 0 0 1 2.18,-1.23c0.52,0 0.88,0.08 1,0.48a0.61,0.61 0 0 1 -0.53,0.8z" class="cls-1"/>
  <path id="svg_2" fill="#fff" d="m87.37,150.18a20.65,20.65 0 0 0 -7.13,-6.36a39.71,39.71 0 0 0 -10.87,-4.22c-0.51,-0.12 -0.54,-0.27 -0.26,-0.63l0.46,-0.56c1.64,-2.08 3.59,-3.87 5.38,-5.8c2.34,-2.54 2.25,-5.83 -0.12,-7.81s-5.14,-1.68 -7.62,0.41a84.21,84.21 0 0 0 -7.15,6.86a87.37,87.37 0 0 0 -9.3,11.28c-1.48,2.22 -2.61,4.57 -2.64,6.19c0,4.52 2.34,7.34 5.73,7.83c2.35,0.33 4.58,0 5.78,-3a57.48,57.48 0 0 1 4.82,-8.94c0.44,-0.69 0.79,-0.75 1.42,-0.3s1.45,0.89 2.15,1.35c3.77,2.5 7.25,5.27 9.52,9.31a6.6,6.6 0 0 0 5.2,3.42a5.2,5.2 0 0 0 6,-4.66a6.82,6.82 0 0 0 -1.37,-4.37zm-16.34,-26c0.28,0 0.7,0 0.7,0.37s-0.42,0.17 -0.64,0.24l-0.09,0c-0.28,0 -0.72,0.42 -0.81,0s0.47,-0.54 0.87,-0.57l-0.03,-0.04zm-9.19,9.24a2.35,2.35 0 0 1 -0.29,0.4a87.1,87.1 0 0 0 -5.86,6.58c-0.25,0.29 -0.56,0.92 -0.94,0.64s0.11,-0.75 0.33,-1.09a35.51,35.51 0 0 1 5.86,-6.68c0.17,-0.16 0.37,-0.44 0.69,-0.25c0.16,0.12 0.3,0.2 0.24,0.44l-0.03,-0.04z" class="cls-1"/>
  <path id="svg_3" fill="#fff" d="m247.37,96.87c-0.32,-1.8 -0.89,-2.2 -2.73,-2.13c-1.64,0.06 -3.28,0.07 -4.92,0.14c-0.74,0 -0.6,-0.57 -0.77,-1s-0.19,-0.63 0.26,-0.86a22.37,22.37 0 0 0 1.92,-1.17a20.06,20.06 0 0 0 4.24,-3.27c2,-2.29 1.24,-5.13 -1.61,-6.19a14.73,14.73 0 0 0 -6.32,-0.59a33.58,33.58 0 0 0 -7,1.21a2.3,2.3 0 0 0 -1.83,2.74a2.52,2.52 0 0 0 2.42,2.36c1.12,-0.06 2.24,-0.18 3.36,-0.24a11.93,11.93 0 0 1 3.91,0c0.73,0.2 0.85,0.53 0.47,1.19a4.81,4.81 0 0 1 -1.4,1.36a1,1 0 0 1 -1.21,0.13a2.59,2.59 0 0 0 -1.58,-0.21a2.16,2.16 0 0 0 -2,2.94c0.12,0.41 0.23,0.81 0.33,1.22s0.07,0.65 -0.48,0.64c-1.24,0 -2.48,0.07 -3.72,0.12a1.73,1.73 0 0 0 -1.69,1.33a8.19,8.19 0 0 0 -0.21,2.37c0,1.75 0.82,2.51 2.56,2.53c1.41,0 2.82,0 4.22,0.06c0.26,0 0.6,-0.09 0.61,0.37a9.35,9.35 0 0 1 -0.25,3.41a1.26,1.26 0 0 1 -1.73,0.94a1.59,1.59 0 0 0 -2.12,0.94a3.72,3.72 0 0 0 2.11,5.17a6.9,6.9 0 0 0 4.88,-0.16c2.26,-0.91 3,-2.9 3.43,-5.05a15,15 0 0 0 0.14,-4.82c-0.06,-0.55 0.13,-0.72 0.65,-0.68s1,0 1.55,0l1.51,0a2.61,2.61 0 0 0 2.42,-1.39a5,5 0 0 0 0.58,-3.41zm-16.77,-13a9,9 0 0 1 -0.91,1c-0.11,0.1 -0.21,-0.13 -0.24,-0.25c-0.1,-0.42 0.53,-1 1,-1c0.06,-0.03 0.18,-0.01 0.12,0.2l0.03,0.05zm-1.49,12.21c-0.68,0.11 -1.12,0.41 -1.16,1.16c0,0.22 -0.05,0.6 -0.39,0.54s-0.3,-0.4 -0.22,-0.69a2,2 0 0 1 1.71,-1.5c0.23,0 0.56,0 0.58,0.25s-0.37,0.16 -0.55,0.19l0.03,0.05zm1.84,11.63a3.21,3.21 0 0 0 -0.4,1c0,0.18 0.1,0.5 -0.22,0.49s-0.18,-0.36 -0.23,-0.53a2.09,2.09 0 0 1 0.47,-1.25a0.27,0.27 0 0 1 0.37,-0.11c0.15,0.1 0.02,0.23 -0.02,0.35l0.03,0.05zm0.19,-0.61a0.15,0.15 0 0 1 -0.2,-0.13a0.32,0.32 0 0 1 0.28,-0.34c0.13,0 0.13,0.11 0.16,0.16c-0.01,0.14 -0.13,0.22 -0.27,0.26l0.03,0.05z" class="cls-1"/>
  <path id="svg_4" fill="#fff" d="m227.1,104.1a8.76,8.76 0 0 0 -2.09,-1.64c-0.23,-0.13 -0.54,-0.25 -0.36,-0.64a23.64,23.64 0 0 0 2,-7c0,-0.21 0.09,-0.3 0.33,-0.34a1.38,1.38 0 0 0 1.27,-1.49c0,-0.63 0,-1.27 0,-1.9a1.54,1.54 0 0 0 -1.88,-1.67l-2,0.17c-1.59,0.14 -1.59,0.14 -1.59,-1.48l0,-0.36a7.71,7.71 0 0 0 -0.32,-2.49a5.49,5.49 0 0 0 -2.83,-3.81a2.28,2.28 0 0 0 -2.39,0.14a2.33,2.33 0 0 0 -0.87,2.34a21.53,21.53 0 0 1 0,5.67a0.68,0.68 0 0 1 -0.76,0.69c-1.31,0.07 -2.62,0.2 -3.92,0.29a1.44,1.44 0 0 0 -1.36,1.11a1.62,1.62 0 0 0 1.63,2.15c0.86,0 1.73,0.12 2.59,0.11c0.58,0 0.64,0.17 0.4,0.64a23,23 0 0 1 -2.51,4c-1,1.27 -0.73,2.15 0.75,2.68a24.64,24.64 0 0 1 3.67,1.74c0.51,0.27 0.56,0.47 0.05,0.8a23.38,23.38 0 0 1 -4,2c-1.65,0.69 -1.82,2.07 -0.41,3.19a5.3,5.3 0 0 0 5,0.72a7.75,7.75 0 0 0 3.52,-2.24c0.67,-0.7 0.67,-0.7 1.25,0.11c0.27,0.38 0.52,0.78 0.8,1.15a2.75,2.75 0 0 0 2.54,1.36a2.89,2.89 0 0 0 2.59,-2.08a3.9,3.9 0 0 0 -1.1,-3.92zm-16.22,-12.09s-0.16,-0.09 -0.19,-0.15c-0.12,-0.33 0.11,-0.52 0.31,-0.71a0.49,0.49 0 0 1 0.63,-0.07c0.05,0 0.08,0.1 0.16,0.21c-0.48,0.06 -0.56,0.54 -0.91,0.72zm2.84,9a0.8,0.8 0 0 1 -0.26,-0.09c-0.49,-0.21 -1.15,-0.3 -1.22,-0.92a2.28,2.28 0 0 1 0.88,-1.83a1.16,1.16 0 0 1 -0.16,0.85c-0.41,1 -0.14,1.39 0.91,1.49c0.26,0 0.76,-0.21 0.71,0.26s-0.54,0.23 -0.86,0.21l0,0.03zm3.3,-18c-0.12,0 -0.19,-0.14 -0.21,-0.31a1.1,1.1 0 0 1 0.89,-0.93c0.22,0 0.45,0.17 0.36,0.29a8.91,8.91 0 0 1 -1.04,0.92l0,0.03zm6.19,12.41a16.13,16.13 0 0 1 -2.22,4.28a0.68,0.68 0 0 1 -0.87,0.32c-0.62,-0.18 -1.28,-0.26 -1.92,-0.4c-0.12,0 -0.31,0 -0.35,-0.14s0.14,-0.22 0.24,-0.31a12.76,12.76 0 0 0 3.2,-4.39c0.28,-0.62 0.71,-0.47 1.29,-0.47c1.03,-0.01 1.03,-0.01 0.63,1.08l0,0.03z" class="cls-1"/>
  <path id="svg_5" fill="#fff" d="m205.27,153.51c-1.65,-0.82 -3.31,-1.6 -5,-2.41c-2.12,-1 -2.09,-1 -0.88,-3.13c1.85,-3.17 3.25,-6.49 2.95,-10.29a6.45,6.45 0 0 0 -2.61,-5c-1.64,-1.19 -3.21,-0.71 -3.91,1.14c-0.58,1.49 -1.13,3 -1.78,4.45a26.8,26.8 0 0 1 -4.07,6.43c-0.35,0.41 -0.72,0.92 -1.43,0.5c-0.43,-0.25 -0.89,-0.32 -1,-1a105.32,105.32 0 0 0 -2,-13.56c-0.51,-2.34 -1,-4.71 -2.55,-6.66a5.92,5.92 0 0 0 -7.14,-1.7a5.6,5.6 0 0 0 -3.25,6.61a137.37,137.37 0 0 1 3.14,24.04a34,34 0 0 1 -0.54,7.05c-0.65,3.09 -1.49,3.74 -4.51,3.15c-1.87,-0.37 -2.83,0.14 -3.57,1.91c-1.09,2.63 0.26,7 2.73,8.92a10.5,10.5 0 0 0 15.15,-3c2.05,-3.52 2.64,-7.42 3,-11.38c0,-0.36 -0.13,-0.84 0.28,-1s0.75,0.31 1,0.58c1.82,1.85 3.62,3.71 5.39,5.6a6.1,6.1 0 0 0 2.27,1.64a9.19,9.19 0 0 0 9.73,-1.93c4.06,-3.49 3.35,-8.61 -1.4,-10.96zm-30.82,-26.16c-0.28,0.29 -0.61,0 -0.71,-0.36c-0.2,-0.74 1.06,-2.44 1.86,-2.54c0.27,0 0.45,0 0.5,0.4c-0.82,0.63 -0.95,1.76 -1.65,2.5z" class="cls-1"/>
  <path id="svg_6" fill="#fff" d="m173.1,143.49c-0.19,-1.9 -1,-3.5 -2.87,-4.18a8.75,8.75 0 0 0 -4,-0.55a39,39 0 0 0 -10.09,2.58a4.86,4.86 0 0 0 -2.78,6.16c0.77,2.29 2,3 4.33,2.37c1.7,-0.42 3.37,-0.91 5.08,-1.25c1.34,-0.26 1.61,0.09 1.1,1.3a16.83,16.83 0 0 1 -7,8.57c-2.21,1.3 -2.91,3.14 -2.07,5.22s3.5,3.63 5.5,3.12a13.47,13.47 0 0 0 6.91,-4.17a24.44,24.44 0 0 0 6,-16.48a26.8,26.8 0 0 0 -0.11,-2.69zm-17.27,1.62a0.35,0.35 0 0 1 -0.48,0.35c-0.45,-0.12 -0.54,-0.46 -0.5,-0.87c0.17,-1.76 1.77,-2.7 3.61,-2c-1.44,0.34 -2.68,0.72 -2.63,2.52z" class="cls-1"/>
  <path id="svg_7" fill="#fff" d="m156.42,152.38a2.7,2.7 0 0 0 -2.12,-1.55c-4.75,0.36 -9.11,0.65 -13.47,1c-2.72,0.25 -3.73,1.93 -2.61,4.4c1.51,3.34 3.13,6.62 4.81,9.88a2.76,2.76 0 0 0 4.86,0.4c2.85,-3.8 5.58,-7.7 8.37,-11.54a2.31,2.31 0 0 0 0.16,-2.59zm-15.42,1.28c-0.46,0.65 -0.62,1.53 -1.35,2c-0.41,-0.12 -0.72,-0.26 -0.61,-0.68a3.32,3.32 0 0 1 0.36,-0.9c0.31,-0.51 0.66,-1.06 1.35,-1a0.39,0.39 0 0 1 0.25,0.58z" class="cls-1"/>
  <path id="svg_8" fill="#fff" d="m156.59,134.83c-2.81,-3.24 -5.58,-6.51 -8.42,-9.73c-1.67,-1.9 -3.7,-1.63 -4.9,0.61q-2.49,4.68 -4.87,9.41c-1.35,2.67 -0.17,4.58 2.82,4.6c2.6,0 5.19,0 7.79,0l0,-0.13l5.36,0a2.73,2.73 0 0 0 2.75,-1.62a2.84,2.84 0 0 0 -0.53,-3.14zm-11.89,-8.07c-0.16,-0.14 -0.37,-0.27 -0.3,-0.56a2.49,2.49 0 0 1 2.36,-1.1a0.67,0.67 0 0 1 0.37,0.55a4.22,4.22 0 0 1 -2.43,1.11z" class="cls-1"/>
  <path id="svg_21" fill="#fff" d="m43.08,135.64c-1.47,0.08 -2.22,0.21 -3.68,0.32c-0.28,0 -0.62,0.1 -0.53,-0.35s-0.33,-0.94 0.48,-1s1,-0.14 1.78,-0.1c1.88,0.08 2.64,-1.35 2.05,-3.13a1.15,1.15 0 0 0 -1.39,-0.84c-1.06,0.1 -1.42,0.18 -2.48,0.3c-0.41,0 -0.47,-0.16 -0.5,-0.47s0.13,-0.41 0.43,-0.39c1.17,0.08 1.62,-0.12 2.79,-0.1a2.07,2.07 0 0 0 0.55,-4.08c-1.42,0 -2.14,0.08 -3.56,0.16c-0.61,0 -0.68,0 -0.78,-0.8s0.37,-0.47 0.65,-0.48c1.15,-0.06 1.59,0 2.74,-0.07a2.09,2.09 0 0 0 2.19,-2.14a1.78,1.78 0 0 0 -1.75,-2c-1.72,0.14 -2.73,0.16 -4.45,0.25c-1.92,0.1 -3.13,0.22 -5,0.3a1,1 0 0 0 -0.87,0.43a2.67,2.67 0 0 0 -0.36,2.06a1.44,1.44 0 0 0 1.58,1.22c1,0 1.19,0 2.14,0c0.47,0 0.62,0.14 0.55,0.57a1.09,1.09 0 0 0 0,0.36c0,0.34 -0.08,0.43 -0.42,0.45c-1.09,0 -1.47,0.14 -2.56,0.16a1.08,1.08 0 0 0 -1.07,0.68a2.74,2.74 0 0 0 -0.24,1.98a1.51,1.51 0 0 0 1.54,1.15l2.15,0c0.23,0 0.59,-0.09 0.51,0.34s0.23,0.84 -0.46,0.88c-0.95,0.06 -1.19,0.15 -2.13,0.27a1.69,1.69 0 0 0 -1.39,2.36a1.39,1.39 0 0 0 1.6,1.11c0.72,0 0.72,-0.06 1.43,-0.07c0.21,0 0.56,-0.19 0.6,0.24c0.07,0.74 -0.11,1.11 -0.58,1.15a12.72,12.72 0 0 1 -1.84,0.17c-1.17,0 -1.7,0.88 -1.69,2.05a1.63,1.63 0 0 0 1.78,1.76c2,0 3.22,0 5.19,0l0,-0.06l5.36,0a1.35,1.35 0 0 0 1.34,-0.81a3.8,3.8 0 0 0 0.43,-1.71a2,2 0 0 0 -2.13,-2.12zm-10.62,-13.78c-0.17,0.1 -0.18,0.43 -0.48,0.31c0,0 0,-0.16 0,-0.21c0.14,-0.23 0.26,-0.53 0.69,-0.34a1.33,1.33 0 0 1 -0.21,0.24zm-0.35,5.55c-0.1,0.08 -0.2,0 -0.18,-0.12a0.7,0.7 0 0 1 0.47,-0.55c0.12,-0.05 0.17,0.05 0.25,0.18c-0.18,0.16 -0.35,0.35 -0.54,0.49zm0.43,4.93c-0.11,0.14 -0.2,0.29 -0.33,0.46c-0.28,-0.31 -0.09,-0.49 0,-0.67s0.24,-0.29 0.39,-0.16s0.03,0.26 -0.06,0.37zm-0.69,5.37c-0.12,0.07 -0.17,-0.07 -0.16,-0.16a0.79,0.79 0 0 1 0.46,-0.56c0.13,-0.06 0.17,0 0.23,0.13a1.45,1.45 0 0 1 -0.53,0.59z" class="cls-1"/>
  <path id="svg_22" fill="#fff" d="m32.06,118.18a13.41,13.41 0 0 0 -0.56,-1.73a1,1 0 0 0 -1.66,-0.5l-4.93,3.28a1.54,1.54 0 0 0 -0.5,1.86c0.25,0.81 0.75,1.27 1.46,1.19s0.61,0.24 0.54,0.62a10.61,10.61 0 0 0 -0.07,1.95c-0.11,2.24 -0.07,4.49 -0.25,6.73a29.8,29.8 0 0 1 -1,6.57a1.89,1.89 0 0 0 0.28,1.58a2.8,2.8 0 0 0 2.65,1.11a2.52,2.52 0 0 0 2.15,-2.3a46.37,46.37 0 0 0 0.25,-5.27c0,-1.42 -0.08,-2.85 -0.14,-4.27c-0.09,-2.24 -0.17,-4.49 -0.45,-6.71c-0.21,-1.68 -0.21,-1.68 1.35,-2.43l0.16,-0.09a1.22,1.22 0 0 0 0.72,-1.59zm-1.16,-1.76c-0.09,0.35 -0.49,0.05 -0.72,0.2a0.17,0.17 0 0 1 -0.26,-0.16c0,-0.3 0.29,-0.31 0.54,-0.33s0.5,0.01 0.44,0.29z" class="cls-1"/>
  <path id="svg_23" fill="#fff" d="m37.61,115.09a2.61,2.61 0 0 0 0,5.22a2.57,2.57 0 0 0 2.55,-2.7a2.46,2.46 0 0 0 -2.55,-2.52zm-1,1.8c-0.28,0 -0.35,-0.23 -0.35,-0.45a0.57,0.57 0 0 1 0.55,-0.59a0.35,0.35 0 0 1 0.38,0.34c-0.11,0.35 -0.27,0.65 -0.61,0.74l0.03,-0.04z" class="cls-1"/>
  <path id="svg_24" fill="#fff" d="m21.89,137.37c-1.47,0.09 -2.22,0.21 -3.68,0.33c-0.28,0 -0.62,0.1 -0.54,-0.36s-0.32,-0.94 0.49,-0.95s0.95,-0.13 1.78,-0.1c1.88,0.08 2.64,-1.35 2,-3.13a1.13,1.13 0 0 0 -1.38,-0.84c-1.06,0.1 -1.42,0.19 -2.48,0.31c-0.41,0 -0.48,-0.17 -0.5,-0.47s0.13,-0.42 0.42,-0.4c1.18,0.08 1.63,-0.11 2.8,-0.1a2.07,2.07 0 0 0 0.55,-4.08c-1.42,0 -2.14,0.09 -3.57,0.16c-0.6,0 -0.67,0 -0.77,-0.8c-0.09,-0.6 0.37,-0.46 0.65,-0.48c1.14,-0.05 1.58,0 2.74,-0.06a2.09,2.09 0 0 0 2.18,-2.15a1.78,1.78 0 0 0 -1.74,-2c-1.72,0.14 -2.74,0.17 -4.46,0.26c-1.91,0.09 -3.12,0.21 -5,0.29a1,1 0 0 0 -0.87,0.44a2.69,2.69 0 0 0 -0.37,2a1.44,1.44 0 0 0 1.58,1.23c1,0 1.2,0 2.15,0c0.47,0 0.61,0.14 0.55,0.58a1,1 0 0 0 0,0.35c0.05,0.34 -0.08,0.44 -0.42,0.45c-1.09,0 -1.47,0.14 -2.56,0.16a1.09,1.09 0 0 0 -1.07,0.69a2.68,2.68 0 0 0 -0.2,1.91a1.5,1.5 0 0 0 1.54,1.14l2.14,0c0.24,0 0.6,-0.1 0.52,0.33s0.23,0.84 -0.46,0.88c-0.95,0.06 -1.19,0.15 -2.13,0.27a1.69,1.69 0 0 0 -1.41,2.4a1.41,1.41 0 0 0 1.6,1.12c0.71,0 0.72,-0.07 1.43,-0.07c0.21,0 0.56,-0.2 0.6,0.24c0.07,0.73 -0.12,1.1 -0.58,1.14a12.72,12.72 0 0 1 -1.84,0.17c-1.17,0 -1.7,0.88 -1.69,2a1.64,1.64 0 0 0 1.78,1.77c2,-0.05 3.22,0 5.19,0l0,-0.07l5.36,0a1.38,1.38 0 0 0 1.34,-0.82a3.77,3.77 0 0 0 0.43,-1.71a2,2 0 0 0 -2.1,-2.03zm-10.62,-13.78c-0.17,0.1 -0.19,0.43 -0.48,0.32a0.25,0.25 0 0 1 0,-0.21c0.14,-0.24 0.26,-0.54 0.69,-0.35c-0.11,0.1 -0.11,0.2 -0.21,0.24zm-0.35,5.56c-0.1,0.07 -0.2,0 -0.18,-0.13a0.7,0.7 0 0 1 0.47,-0.55c0.12,0 0.17,0.06 0.24,0.19c-0.17,0.16 -0.34,0.34 -0.53,0.49zm0.43,4.93c-0.11,0.13 -0.21,0.28 -0.33,0.45c-0.28,-0.31 -0.09,-0.49 0.05,-0.67s0.23,-0.28 0.39,-0.16s-0.02,0.23 -0.09,0.38l-0.02,0zm-0.69,5.36c-0.12,0.08 -0.18,-0.07 -0.16,-0.16a0.79,0.79 0 0 1 0.46,-0.56c0.12,-0.06 0.17,0.05 0.23,0.14a1.56,1.56 0 0 1 -0.53,0.58z" class="cls-1"/>
  <path id="svg_25" fill="#fff" d="m10.87,119.93a13.93,13.93 0 0 0 -0.56,-1.73a1,1 0 0 0 -1.67,-0.5l-4.92,3.23a1.52,1.52 0 0 0 -0.5,1.86c0.25,0.82 0.75,1.27 1.46,1.19s0.61,0.25 0.54,0.63a10.47,10.47 0 0 0 -0.07,1.94c-0.11,2.24 -0.07,4.49 -0.26,6.73a29.37,29.37 0 0 1 -1,6.58a1.84,1.84 0 0 0 0.21,1.57a2.8,2.8 0 0 0 2.64,1.12a2.53,2.53 0 0 0 2.16,-2.3a46.54,46.54 0 0 0 0.24,-5.28c0,-1.42 -0.08,-2.85 -0.13,-4.27c-0.1,-2.24 -0.17,-4.48 -0.46,-6.71c-0.21,-1.68 -0.2,-1.68 1.35,-2.43l0.17,-0.09a1.23,1.23 0 0 0 0.8,-1.54zm-1.17,-1.76c-0.08,0.35 -0.48,0 -0.71,0.2a0.18,0.18 0 0 1 -0.27,-0.16c0,-0.3 0.3,-0.31 0.55,-0.32s0.5,0.04 0.43,0.26l0,0.02z" class="cls-1"/>
  <path id="svg_26" fill="#fff" d="m16.42,116.82a2.61,2.61 0 0 0 0,5.22a2.56,2.56 0 0 0 2.55,-2.7a2.47,2.47 0 0 0 -2.55,-2.52zm-1,1.8c-0.27,0 -0.35,-0.22 -0.34,-0.45a0.58,0.58 0 0 1 0.55,-0.59a0.35,0.35 0 0 1 0.38,0.34c-0.12,0.35 -0.28,0.65 -0.64,0.7l0.05,0z" class="cls-1"/>
  <path id="svg_27" fill="#fff" d="m40.63,153.6c-0.66,-0.48 -1.86,-0.81 -2,-1.36s0.7,-1.5 1.05,-2.28c1.59,-3.59 0.33,-7.31 -3.59,-8.59a15.68,15.68 0 0 0 -4.36,-0.81a62.06,62.06 0 0 0 -10.32,0.94c-1.2,0.28 -2.4,0.53 -3.59,0.83c-1.69,0.43 -3.4,0.8 -4.55,2.31a3.54,3.54 0 0 0 -0.43,4.06c0.62,1 1.64,1.29 3.41,0.88c2.54,-0.57 5.07,-1.2 7.62,-1.75a22.2,22.2 0 0 1 6.13,-0.7c0.57,0 1.25,0 1.28,0.85a2.43,2.43 0 0 1 -2.21,2.2a27.31,27.31 0 0 0 -9.61,1.5a12.6,12.6 0 0 0 -3.82,2a1.09,1.09 0 0 0 -0.52,1.12c0.14,0.53 0.62,0.53 1,0.63a4.75,4.75 0 0 0 0.54,0a27.58,27.58 0 0 1 6.73,1.14c-0.88,0.66 -1.53,1.17 -2.21,1.65a48.14,48.14 0 0 1 -6.5,3.92c-0.8,0.4 -1.71,0.94 -1.46,2s1.26,1.15 2.19,1.2a9.65,9.65 0 0 0 4.14,-0.74a61.62,61.62 0 0 0 9.88,-4.7a1.2,1.2 0 0 1 1.71,0.18a26.13,26.13 0 0 1 2.23,2.4a4.18,4.18 0 0 0 5,1.35a7.91,7.91 0 0 0 3.25,-2.29a5.13,5.13 0 0 0 -0.99,-7.94zm-25.19,-7a0.42,0.42 0 0 1 -0.53,0.41a0.56,0.56 0 0 1 -0.45,-0.55a3,3 0 0 1 1.17,-2.23a2.11,2.11 0 0 1 2.42,-0.53c-1.51,0.44 -2.59,1.23 -2.61,2.91l0,-0.01zm2.12,7.24c-0.19,0.38 -0.65,0.5 -1,0.67a0.21,0.21 0 0 1 -0.29,-0.22c0.05,-0.53 0.48,-0.65 0.91,-0.79c0.19,0.02 0.49,0.11 0.38,0.35l0,-0.01z" class="cls-1"/>
  <path id="svg_28" fill="#fff" d="m211.72,121.78c0,-0.36 0,-0.72 0,-1.08a0.48,0.48 0 0 0 -0.48,-0.51a0.49,0.49 0 0 0 -0.52,0.51l0,0.63c0,0.83 0,1.67 0,2.51a0.81,0.81 0 0 0 0,0.16a0.21,0.21 0 0 1 -0.1,-0.11c-0.63,-1.11 -1.26,-2.22 -1.88,-3.34a0.83,0.83 0 0 0 -1.18,-0.27a0.92,0.92 0 0 0 -0.37,0.88c0,0.85 0,1.71 0,2.56c0,0.51 0,1 0,1.52a0.49,0.49 0 0 0 0.5,0.5a0.48,0.48 0 0 0 0.49,-0.52c0,-0.4 0,-0.8 0,-1.2s0,-0.86 0,-1.29s0,-0.73 0,-1.08a0.48,0.48 0 0 1 0.09,0.13l1,1.78l1.16,2a0.65,0.65 0 0 0 1.21,-0.35c0,-0.44 0,-0.88 0,-1.32c0.06,-0.71 0.08,-1.41 0.08,-2.11zm-3.89,-1.33a1.1,1.1 0 0 0 -0.26,0.35s0,0 -0.08,0s0,0 0,-0.08a0.65,0.65 0 0 1 0.32,-0.4a0.06,0.06 0 0 1 0.08,0s-0.04,0.11 -0.06,0.13z" class="cls-1"/>
  <path id="svg_29" fill="#fff" d="m216.86,121.59a2.33,2.33 0 0 0 -2,-1.37a5.42,5.42 0 0 0 -1.45,0.08a0.18,0.18 0 0 1 -0.16,0a0.45,0.45 0 0 0 -0.53,-0.07a0.51,0.51 0 0 0 -0.28,0.49c0,0.54 0,1.07 0,1.61s0,1 0,1.44l0,0c0,0.53 0,1.06 0,1.59a0.53,0.53 0 0 0 0.3,0.51a0.5,0.5 0 0 0 0.58,-0.12a0.14,0.14 0 0 1 0.15,0a9.06,9.06 0 0 0 0.91,0.13a2.69,2.69 0 0 0 1.45,-0.27a2.43,2.43 0 0 0 1.38,-2a3.47,3.47 0 0 0 -0.35,-2.02zm-4,-1.14a0.34,0.34 0 0 0 -0.14,0.15s0,0.1 -0.1,0.07a0.1,0.1 0 0 1 -0.06,-0.12a0.33,0.33 0 0 1 0.23,-0.25s0.1,0 0.12,0.06s-0.01,0.07 -0.04,0.09l-0.01,0zm3,3.51a1.43,1.43 0 0 1 -1.15,0.83a3.51,3.51 0 0 1 -1.25,-0.09c-0.08,0 -0.1,-0.07 -0.1,-0.15l0,-2.08l0,0c0,-0.36 0,-0.71 0,-1.06c0,-0.09 0,-0.13 0.13,-0.15a5.46,5.46 0 0 1 0.9,-0.07a1.45,1.45 0 0 1 1.37,0.8a2.18,2.18 0 0 1 0.13,1.94l-0.03,0.03z" class="cls-1"/>
  <path id="svg_30" fill="#fff" d="m194.37,120.93c0.63,0 1.26,0 1.89,0a0.5,0.5 0 0 0 0.48,-0.32a0.49,0.49 0 0 0 -0.12,-0.54a0.56,0.56 0 0 0 -0.44,-0.15l-2.7,0c-0.41,0 -0.6,0.19 -0.61,0.6l0,2.23c0,0.77 0,1.54 0,2.31a0.48,0.48 0 0 0 0.48,0.53l2.94,0.05a0.46,0.46 0 0 0 0.43,-0.26a0.5,0.5 0 0 0 -0.47,-0.73l-1.89,0c-0.36,0 -0.49,-0.14 -0.48,-0.49s0,-0.53 0,-0.79c0,-0.11 0,-0.13 0.13,-0.13l1.8,0a0.5,0.5 0 0 0 0.17,0a0.5,0.5 0 0 0 0.37,-0.54a0.52,0.52 0 0 0 -0.51,-0.44l-1.82,0c-0.1,0 -0.13,0 -0.12,-0.12s0,-0.43 0,-0.65a0.49,0.49 0 0 1 0.47,-0.56zm-0.92,-0.68a0.48,0.48 0 0 0 -0.19,0.21c0,0.05 -0.05,0.12 -0.12,0.09a0.11,0.11 0 0 1 -0.08,-0.14a0.35,0.35 0 0 1 0.34,-0.32c0.05,0 0.09,0 0.11,0.07a0.07,0.07 0 0 1 -0.02,0.13l-0.04,-0.04z" class="cls-1"/>
  <path id="svg_31" fill="#fff" d="m204.62,120.33a0.38,0.38 0 0 0 -0.36,-0.28a0.39,0.39 0 0 0 -0.4,0.25c-0.41,0.92 -0.83,1.83 -1.25,2.75l-0.87,1.9a0.5,0.5 0 0 0 0.48,0.73a0.52,0.52 0 0 0 0.44,-0.36c0.16,-0.35 0.34,-0.71 0.48,-1.07a0.27,0.27 0 0 1 0.3,-0.2l1.33,-0.05c0.12,0 0.21,0 0.24,0.15s0,0.09 0.05,0.14c0.15,0.38 0.29,0.77 0.45,1.16a0.45,0.45 0 0 0 0.55,0.26a0.47,0.47 0 0 0 0.38,-0.48a0.42,0.42 0 0 0 0,-0.24l-1.82,-4.66zm-0.35,-0.17s0.09,0 0.1,0.05a0.07,0.07 0 0 1 -0.05,0.09a0.38,0.38 0 0 0 -0.16,0.17s0,0.08 -0.09,0.05a0.11,0.11 0 0 1 -0.06,-0.11a0.29,0.29 0 0 1 0.26,-0.25zm0.22,2.86l-0.57,0c-0.24,0 -0.24,0 -0.14,-0.21l0.35,-0.77s0,-0.06 0.05,-0.06s0,0 0.05,0.06l0.33,0.88c0.03,0.09 -0.02,0.09 -0.07,0.1z" class="cls-1"/>
  <path id="svg_32" fill="#fff" d="m191.96,120.07a5.59,5.59 0 0 0 -1.36,-0.21a2.48,2.48 0 0 0 -2.42,1.73a3.68,3.68 0 0 0 0.07,2.47a2.17,2.17 0 0 0 1.34,1.32a4.12,4.12 0 0 0 1.33,0.22a6,6 0 0 0 0.83,-0.06a0.5,0.5 0 1 0 -0.15,-1a3.21,3.21 0 0 1 -1.31,0a1.42,1.42 0 0 1 -1.07,-1a3,3 0 0 1 0.06,-1.7a1.14,1.14 0 0 1 0.74,-0.82a2.35,2.35 0 0 1 1,-0.06c0.26,0 0.5,0.11 0.76,0.15a0.5,0.5 0 0 0 0.56,-0.37a0.52,0.52 0 0 0 -0.38,-0.67zm-2.3,0.3a3.18,3.18 0 0 0 -0.53,0.44a0.07,0.07 0 0 1 -0.09,0a0.07,0.07 0 0 1 0,-0.05a1.14,1.14 0 0 1 0.6,-0.5a0,0 0 0 1 0.06,0s-0.02,0.1 -0.04,0.11z" class="cls-1"/>
  <path id="svg_33" fill="#fff" d="m200.63,124.67l-0.64,0c-0.5,0 -1,0 -1.5,0c-0.13,0 -0.15,0 -0.14,-0.16c0,-0.41 0.06,-0.83 0.08,-1.24c0.07,-0.91 0.11,-1.81 0.17,-2.72a0.46,0.46 0 0 0 -0.33,-0.47a0.47,0.47 0 0 0 -0.56,0.19a0.82,0.82 0 0 0 -0.1,0.37c0,0.38 0,0.77 -0.07,1.15l-0.15,2.3c0,0.32 0,0.64 -0.07,1a0.52,0.52 0 0 0 0.46,0.59l0.4,0l2.23,0l0,0l0.28,0a0.48,0.48 0 0 0 0.41,-0.51a0.48,0.48 0 0 0 -0.47,-0.5zm-2.53,-4.41a0.45,0.45 0 0 0 -0.16,0.2s0,0.06 -0.09,0s0,-0.06 0,-0.1s0.09,-0.22 0.22,-0.25s0.08,0 0.1,0s-0.05,0.12 -0.07,0.15z" class="cls-1"/>
  <path id="svg_34" fill="#fff" d="m186.81,119.76a0.51,0.51 0 0 0 -0.5,0.5c0,0.79 0,1.58 0,2.36l0,2.39a0.42,0.42 0 0 0 0,0.22a0.5,0.5 0 0 0 0.57,0.29a0.49,0.49 0 0 0 0.38,-0.49c0,-1.58 0,-3.16 0.07,-4.74a0.5,0.5 0 0 0 -0.52,-0.53zm0,0.32a0.55,0.55 0 0 0 -0.16,0.18s0,0.09 -0.09,0.06a0.12,0.12 0 0 1 -0.08,-0.12a0.33,0.33 0 0 1 0.28,-0.25a0.09,0.09 0 0 1 0.1,0s-0.01,0.12 -0.04,0.13l-0.01,0z" class="cls-1"/>
  <path id="svg_35" fill="#fff" d="m247.97,154.63c-0.69,-1.65 -2.21,-2.41 -4.11,-2.74a54.76,54.76 0 0 0 -12.73,-0.27a107.83,107.83 0 0 0 -10.92,1.19c-0.59,0.09 -0.77,0 -0.54,-0.54s0.06,-0.78 0.48,-1.14s0.28,-0.19 2.33,-0.41l1,-0.08c4.39,-0.23 15.41,-1.07 19.79,-1.36c2.6,-0.17 4.06,-2.53 2.9,-4.55c-0.93,-1.61 -2.6,-1.88 -4.44,-1.79c-4.18,0.21 -15.64,1.07 -19.82,1.3c-0.54,0 0,-1.73 0,-2.43c0.2,0.07 0.39,0.14 0.59,0.19a23.38,23.38 0 0 0 6.35,0.62a30.71,30.71 0 0 0 10.76,-1.62a8.42,8.42 0 0 0 4.84,-3.68a9.41,9.41 0 0 0 -1.18,-9.93a11.75,11.75 0 0 0 -7.32,-3.92a24.26,24.26 0 0 0 -8.11,0a8.69,8.69 0 0 0 2.23,-2.71a4.55,4.55 0 0 0 0.65,-1.48c0.4,-2.18 -2,-4.4 -3.56,-4.66a1.85,1.85 0 0 0 -2.17,1.14a9.42,9.42 0 0 0 -0.58,1.87a29.48,29.48 0 0 1 -2.73,6.81c-0.44,0.78 -1.79,2.44 -2.06,3.06a20,20 0 0 0 -2.26,4.93a80.82,80.82 0 0 1 -2.1,8.45c-0.22,0.75 -0.51,1.7 -0.83,2.74c-0.87,2.35 -1.71,4.71 -2.41,7.1a23.06,23.06 0 0 0 -1.25,6.38a2.89,2.89 0 0 0 3.3,2.64c3.06,-0.33 6.13,-0.68 9.19,-1q5.61,-0.66 11.28,-0.8a27.12,27.12 0 0 1 3.49,0.2a2.32,2.32 0 0 1 2.37,1.77a10,10 0 0 1 -1.4,8.08c-0.43,0.68 -1,1.18 -1.88,0.4a1.41,1.41 0 0 0 -0.66,-0.23c-2.53,-0.44 -5.23,1.6 -5.13,3.86c0.14,3 4.18,5.64 7.54,4.92a11.52,11.52 0 0 0 7.5,-4.65a17.81,17.81 0 0 0 1.6,-17.66zm-21.55,-39.29a0.61,0.61 0 0 1 0.54,-0.1c0.1,0 0.21,0 0.21,0.18a0.25,0.25 0 0 1 -0.27,0.09c-0.16,0 -0.32,0.19 -0.47,0a0.19,0.19 0 0 1 -0.01,-0.17zm1.68,15.44a25.24,25.24 0 0 1 7.1,0.41a8,8 0 0 1 2.92,1.24a2.72,2.72 0 0 1 1.19,1.79a2,2 0 0 1 -1.06,2.21a13.62,13.62 0 0 1 -4.73,1.23a39.64,39.64 0 0 1 -6.44,0.39a8,8 0 0 1 -3.45,-0.77a1.08,1.08 0 0 1 -0.64,-0.62c0.88,-0.06 1.73,-0.16 2.58,-0.16c2.77,0 5.53,-0.25 8.3,-0.31c1.16,0 1.65,-0.7 1.42,-1.83c0,-0.06 0,-0.12 0,-0.18c-0.28,-1.69 -0.54,-1.92 -2.26,-1.78c-3,0.23 -6,0.48 -9,0.72l-1.28,0.13c-0.38,0 -0.39,-0.14 -0.23,-0.39a3.49,3.49 0 0 1 1.6,-1.29a11.59,11.59 0 0 1 3.98,-0.79zm-8.61,-0.81a7.38,7.38 0 0 1 3.84,-4.2c0.16,-0.08 0.38,-0.21 0.51,0a0.45,0.45 0 0 1 -0.18,0.58c-0.28,0.19 -0.6,0.32 -0.89,0.5a6.84,6.84 0 0 0 -3,3.95c-0.06,0.17 -0.08,0.34 -0.27,0.46c-0.38,-0.41 -0.13,-0.88 -0.01,-1.33l0,0.04zm14.51,40.33c-0.25,0 -0.42,-0.06 -0.41,-0.28a0.68,0.68 0 0 1 0.61,-0.63c0.28,-0.06 0.5,0 0.47,0.31s-0.3,0.49 -0.67,0.6z" class="cls-1"/>
  <path id="svg_36" fill="#fff" d="m231.37,160.58c-0.51,-0.89 -2.11,-0.93 -3.23,-0.39s-0.7,1.35 -0.54,2.22c0.59,3.06 0.95,2.27 -1.9,3.1c-0.37,0.11 -0.77,0.16 -1.14,0.26c-0.69,0.19 -0.93,-0.06 -0.93,-0.76a11,11 0 0 0 -0.9,-4a1.64,1.64 0 0 0 -1.74,-1.28c-0.4,0 -2.19,0 -2,1.49s0.34,2.92 0.45,4.39c0,0.4 0.2,0.94 -0.54,1.12c-2.32,0.55 -3.12,-0.13 -2.76,-2.46c0,-0.21 0,-0.43 0.06,-0.65a2,2 0 0 0 -1,-2.35a2.08,2.08 0 0 0 -2.59,0.31c-1.33,1.58 -1.68,4.67 -1.64,6.87c0,1.91 0.84,2.57 2.74,2.78c3.16,0.36 6.23,-0.29 9.34,-0.68c2,-0.24 4,-1.78 6.1,-0.47c0.19,0.12 0.51,0 0.77,0c0.78,-0.07 1.55,-0.17 2.33,-0.26a2.63,2.63 0 0 0 1,-1.15c0.84,-3.06 -0.47,-5.61 -1.88,-8.09zm-17.91,1.65c-0.26,0.3 -0.58,0.77 -0.89,0c0,-0.2 1.09,-1.2 1.34,-0.82s-0.3,0.58 -0.49,0.82l0.04,0zm5.68,-1.06c0.1,-0.75 0.62,-1 1.28,-1.12c0.01,0.88 -0.57,1.11 -1.32,1.12l0.04,0zm10,-0.37a3.6,3.6 0 0 1 -0.85,0.81c-0.28,0 -0.46,0 -0.43,-0.26a0.9,0.9 0 0 1 0.86,-0.81c0.17,-0.03 0.51,0.03 0.37,0.26l0.05,0z" class="cls-1"/>
  <path id="svg_37" fill="#fff" d="m92.02,87.98c-0.22,-1.94 -0.53,-3.89 -1.93,-5.39c-1.9,-2 -4.41,-2.58 -7.07,-2.65c-0.38,0 -1,0.29 -1,-0.34s0.64,-0.57 1.12,-0.57c1.07,0 2.14,0.08 3.21,0.06c1.76,0 3.56,0 4.75,-1.69a5,5 0 0 0 0.58,-5.29c-0.7,-1.51 -2.09,-1.88 -3.66,-1.76c-3.81,0.29 -7.62,0.55 -11.42,0.84c-1.84,0.14 -2.65,0.75 -3,2.24c-0.84,3.2 0.72,5.33 4.06,5.45c0.76,0 0.83,0.22 0.56,0.88c-1,2.43 -2,4.87 -2.93,7.31c-1.48,3.71 -3,7.42 -4.43,11.14c-0.48,1.25 0,2 1.25,2.45s2.84,0.88 4.25,1.33c1.82,0.59 2.6,0.13 2.87,-1.75c0.58,-4.16 1.13,-8.31 1.69,-12.47c0,-0.31 0,-0.61 0.32,-0.82a3.06,3.06 0 0 1 4.34,1.47a11.56,11.56 0 0 1 -0.4,7.3a1,1 0 0 1 -1.44,0.65a2.08,2.08 0 0 0 -2.26,0.34a4.23,4.23 0 0 0 -1.14,4.43a3.72,3.72 0 0 0 2.88,2.94c2.48,0.54 4.18,-0.76 5.54,-2.6c2.32,-3.15 3.16,-6.8 3.42,-10.91c-0.09,-0.64 -0.05,-1.64 -0.16,-2.59zm-15.47,-15.35c-0.64,0.25 -1,0.93 -1.58,1.39c-0.09,0.07 -0.36,-0.1 -0.42,-0.3c-0.14,-0.52 0.2,-0.84 0.54,-1.15s0.76,-0.65 1.31,-0.42c0.14,0.06 0.22,0.2 0.15,0.48z" class="cls-1"/>
  <path id="svg_38" fill="#fff" d="m84.37,59.5a4.56,4.56 0 0 0 -4.87,4.58a4.85,4.85 0 0 0 4.48,5.21c2.41,0.25 4.81,-2 4.91,-4.69a4.91,4.91 0 0 0 -4.52,-5.1zm-2.39,3.43c-0.52,0 -0.7,-0.39 -0.74,-0.88a1.58,1.58 0 0 1 1.43,-1.36a0.88,0.88 0 0 1 0.84,0.91a1.55,1.55 0 0 1 -1.53,1.33z" class="cls-1"/>
  <path id="svg_39" fill="#fff" d="m114.18,66.42a2.75,2.75 0 0 0 -2.89,-2.24c-1.79,0 -3.57,0 -5.35,0.12c-0.86,0 -1.39,-0.07 -0.9,-1.11a1.81,1.81 0 0 0 0,-1.13c-0.37,-2 -2.68,-3.74 -5.18,-3.83a3.22,3.22 0 0 0 -3.49,2.79a125,125 0 0 1 -2.61,12.74a10.06,10.06 0 0 0 -0.41,3.53c0.12,1.31 1,1.74 2.15,1.09a8.76,8.76 0 0 0 2.12,-2a4.75,4.75 0 0 1 0.9,-1.23c0.61,-1 1.25,-1.93 1.83,-2.92a1.25,1.25 0 0 1 1.34,-0.73q4.1,0.3 8.19,0.5a4.15,4.15 0 0 0 4.3,-5.58zm-16.13,-5.57c-0.09,0 -0.21,-0.12 -0.22,-0.19a1.07,1.07 0 0 1 0.31,-1c0.3,-0.28 0.57,-0.64 1.06,-0.54c0.2,0 0.28,0.17 0.33,0.35a5,5 0 0 1 -1.48,1.38z" class="cls-1"/>
  <path id="svg_40" fill="#fff" d="m113.63,87.75a3.22,3.22 0 0 0 -3.26,-3.23c-0.59,0 -1.19,0 -1.78,0c-0.23,0 -0.53,0.1 -0.66,-0.18s0.16,-0.42 0.31,-0.59a7.66,7.66 0 0 0 2.2,-5.41c0,-2 -1.42,-4.57 -3,-4.87a10.34,10.34 0 0 0 -8.6,1.86c-0.29,0.49 -0.58,1 -0.86,1.48a4,4 0 0 0 -0.37,1.73a1.92,1.92 0 0 0 2.5,2.11a7.74,7.74 0 0 1 1.67,-0.13a1.19,1.19 0 0 1 1.16,1c0.28,1 -1.27,3 -2.31,3c-1.44,0 -2.87,0 -4.31,0a1.73,1.73 0 0 0 -1.95,1.41a13.25,13.25 0 0 0 -0.37,5c0.14,1.38 0.92,2 2.34,2.09c0.8,0.07 1.6,0.17 2.4,0.22c0.38,0 0.59,0.11 0.59,0.53s0.07,0.84 0.06,1.25c-0.06,2.64 -1,3.54 -3.65,3.3a2.11,2.11 0 0 0 -1.91,0.86a4.57,4.57 0 0 0 1.3,6.81a10,10 0 0 0 6.44,0.72a8,8 0 0 0 6.86,-6.09a14.64,14.64 0 0 0 0.31,-5.63c-0.11,-0.76 0.08,-1 0.87,-1.12a4,4 0 0 0 3.76,-3.42a8.72,8.72 0 0 0 0.26,-2.7zm-19,13.32c-0.46,0 -0.63,-0.31 -0.62,-0.67a1,1 0 0 1 1,-0.92c0.42,0 0.6,0.26 0.65,0.6a1.11,1.11 0 0 1 -1.01,0.99l-0.02,0z" class="cls-1"/>
  <path id="svg_41" fill="#fff" d="m115.14,103.93c-2.16,-2.32 -4.93,-1.9 -7.5,-0.8c-7.65,3.27 -15.45,3.48 -23.42,1.48a55.37,55.37 0 0 1 -13.57,-5.44c-0.72,-0.41 -1.83,-0.61 -1.85,-1.74c-0.09,-5.34 -0.87,-10.74 1.15,-15.93a3.91,3.91 0 0 0 -3.39,-5.57a17.44,17.44 0 0 0 -4.33,0.21a8,8 0 0 0 -4,1.29c-2.06,1.17 -2.34,2.66 -0.57,4.89a13,13 0 0 1 2.76,6.51c0.84,6 0.8,11.61 -5.33,15.2a3.89,3.89 0 0 0 -1.72,2.9c-0.4,3.23 2,6.11 5.57,6.74c3,0.54 5.43,-1.21 6.22,-4.53c0.7,-3 2.12,-3.71 4.79,-2.27a77.76,77.76 0 0 1 6.67,4.13a50.81,50.81 0 0 0 27.6,9.34c5.83,0.17 10,-2.43 12.21,-7.78c1.27,-3.05 1.05,-6.14 -1.29,-8.63zm-50.48,-26.85l-0.13,0a1,1 0 0 1 0.09,0.36c-2,0.59 -4.41,0.3 -6,2.18a0.49,0.49 0 0 1 -0.85,-0.17c-0.29,-0.86 0.45,-1.17 1,-1.57a17.21,17.21 0 0 1 4.54,-1c0.42,0 1,-0.32 1.22,0.14l0.14,0l-0.01,0.06zm0.19,0c-0.1,0 -0.1,0 -0.09,0l0.1,0l0.08,0l-0.09,0zm48.1,38.58c-2.87,3 -6.44,3 -10.14,2.3c2.32,-0.4 4.73,-0.35 6.91,-1.43a9.91,9.91 0 0 0 2.57,-1.68c0.29,-0.29 0.69,-0.62 1,-0.19s-0.08,0.77 -0.34,1.05l0,-0.05zm1.68,-1.83c-0.57,0 -0.87,-0.26 -0.84,-0.73a1.29,1.29 0 0 1 1.29,-1.34a0.7,0.7 0 0 1 0.82,0.72c-0.03,0.85 -0.64,1.19 -1.27,1.45l0,-0.1z" class="cls-1"/>
  <path id="svg_42" fill="#fff" d="m68.37,64.76c-1.23,-2.4 -3.46,-3.69 -5.63,-3.27a5.51,5.51 0 0 0 -4.09,5.29a7.46,7.46 0 0 0 2.24,6.15a4.74,4.74 0 0 0 7.73,-1.43a7.28,7.28 0 0 0 -0.25,-6.74zm-5.86,0.64c-0.67,0 -1,-0.2 -1,-0.7a1.14,1.14 0 0 1 1.14,-1.18a0.72,0.72 0 0 1 0.82,0.72c0.01,0.76 -0.61,0.95 -0.99,1.16l0.03,0z" class="cls-1"/>
  <path id="svg_43" fill="#fff" d="m115.96,140.74a5.49,5.49 0 0 0 -1.16,-3.26a5.66,5.66 0 0 0 -4.27,-1.59c-0.23,0 -0.6,0.18 -0.62,-0.21s0.39,-0.34 0.67,-0.34c0.65,0 1.29,0.05 1.94,0c1.06,0 2.15,0 2.86,-1a3,3 0 0 0 0.36,-3.19a2,2 0 0 0 -2.21,-1.06l-6.89,0.5c-1.11,0.09 -1.6,0.45 -1.83,1.35c-0.51,1.93 0.43,3.21 2.45,3.29c0.46,0 0.5,0.13 0.34,0.53c-0.61,1.46 -1.19,2.94 -1.77,4.41c-0.9,2.24 -1.8,4.47 -2.67,6.72c-0.29,0.75 0,1.22 0.75,1.47l2.57,0.81c1.09,0.35 1.56,0.07 1.72,-1.06c0.35,-2.51 0.68,-5 1,-7.52c0,-0.18 0,-0.37 0.2,-0.5a1.84,1.84 0 0 1 2.61,0.89a6.92,6.92 0 0 1 -0.24,4.4a0.59,0.59 0 0 1 -0.87,0.4a1.24,1.24 0 0 0 -1.36,0.2a2.55,2.55 0 0 0 -0.69,2.67a2.25,2.25 0 0 0 1.74,1.77a3.16,3.16 0 0 0 3.34,-1.57a11.84,11.84 0 0 0 2.06,-6.57a14.73,14.73 0 0 0 -0.03,-1.54zm-9.33,-9.26c-0.39,0.15 -0.61,0.56 -1,0.84c0,0 -0.22,-0.06 -0.25,-0.18c-0.09,-0.32 0.12,-0.51 0.32,-0.7s0.46,-0.39 0.79,-0.25c0.13,0.04 0.18,0.12 0.14,0.29z" class="cls-1"/>
  <path id="svg_44" fill="#fff" d="m111.37,123.56a2.76,2.76 0 0 0 -3,2.77a2.84,2.84 0 1 0 5.67,0.31a3,3 0 0 0 -2.67,-3.08zm-1.42,2.05c-0.31,0 -0.42,-0.23 -0.44,-0.52a0.94,0.94 0 0 1 0.86,-0.82a0.53,0.53 0 0 1 0.51,0.54a0.93,0.93 0 0 1 -0.98,0.8l0.05,0z" class="cls-1"/>
  <path id="svg_45" fill="#fff" d="m129.37,127.74a1.67,1.67 0 0 0 -1.75,-1.36c-1.07,0 -2.15,0 -3.22,0.08c-0.52,0 -0.84,0 -0.54,-0.67a1.05,1.05 0 0 0 0,-0.68a3.25,3.25 0 0 0 -3.12,-2.31a2,2 0 0 0 -2.11,1.68a73.58,73.58 0 0 1 -1.57,7.68a6.16,6.16 0 0 0 -0.24,2.13c0.07,0.79 0.6,1 1.29,0.66a5.26,5.26 0 0 0 1.28,-1.21a2.61,2.61 0 0 1 0.54,-0.74c0.37,-0.59 0.76,-1.16 1.1,-1.76a0.76,0.76 0 0 1 0.82,-0.44c1.64,0.12 3.28,0.22 4.93,0.3a2.5,2.5 0 0 0 2.59,-3.36zm-9.72,-3.36c-0.06,0 -0.13,-0.07 -0.14,-0.12a0.63,0.63 0 0 1 0.19,-0.57c0.18,-0.18 0.34,-0.39 0.64,-0.33a0.24,0.24 0 0 1 0.2,0.21a3.25,3.25 0 0 1 -0.94,0.81l0.05,0z" class="cls-1"/>
  <path id="svg_46" fill="#fff" d="m128.99,140.59a1.94,1.94 0 0 0 -2,-1.94c-0.36,0 -0.72,0 -1.07,0c-0.14,0 -0.32,0.06 -0.4,-0.11s0.1,-0.26 0.19,-0.36a4.6,4.6 0 0 0 1.32,-3.26c0,-1.2 -0.85,-2.75 -1.83,-2.94a6.25,6.25 0 0 0 -5.19,1.13l-0.52,0.89a2.34,2.34 0 0 0 -0.22,1a1.15,1.15 0 0 0 1.5,1.27a4.91,4.91 0 0 1 1,-0.07a0.7,0.7 0 0 1 0.7,0.61a1.94,1.94 0 0 1 -1.39,1.82c-0.87,0 -1.73,0 -2.6,0a1.06,1.06 0 0 0 -1.14,0.81a8,8 0 0 0 -0.21,3c0.08,0.83 0.55,1.19 1.4,1.26c0.49,0 1,0.11 1.45,0.13c0.23,0 0.35,0.07 0.36,0.32s0,0.51 0,0.76c0,1.59 -0.62,2.13 -2.2,2a1.26,1.26 0 0 0 -1.15,0.52a2.74,2.74 0 0 0 0.79,4.1a6,6 0 0 0 3.88,0.44a4.81,4.81 0 0 0 4.13,-3.67a8.67,8.67 0 0 0 0.19,-3.4c-0.06,-0.46 0,-0.62 0.52,-0.68a2.41,2.41 0 0 0 2.31,-2.06a5.22,5.22 0 0 0 0.18,-1.57zm-11.45,8c-0.27,0 -0.38,-0.19 -0.37,-0.4a0.58,0.58 0 0 1 0.57,-0.56c0.25,0 0.36,0.15 0.39,0.36a0.66,0.66 0 0 1 -0.59,0.64l0,-0.04z" class="cls-1"/>
  <path id="svg_47" fill="#fff" d="m129.89,150.34c-1.3,-1.4 -3,-1.14 -4.51,-0.48a21.55,21.55 0 0 1 -14.12,0.89a33.34,33.34 0 0 1 -8.18,-3.28c-0.44,-0.25 -1.11,-0.36 -1.12,-1c-0.06,-3.22 -0.53,-6.47 0.69,-9.61a2.36,2.36 0 0 0 -2,-3.34a11.38,11.38 0 0 0 -2.61,0.13a4.94,4.94 0 0 0 -2.39,0.78c-1.24,0.7 -1.4,1.6 -0.34,3a7.79,7.79 0 0 1 1.67,3.92c0.5,3.65 0.48,7 -3.22,9.17a2.35,2.35 0 0 0 -1.06,1.76a3.78,3.78 0 0 0 3.36,4.07c1.83,0.32 3.27,-0.74 3.75,-2.74c0.42,-1.79 1.28,-2.24 2.89,-1.36a46.18,46.18 0 0 1 4,2.48a30.54,30.54 0 0 0 16.67,5.53a7.09,7.09 0 0 0 7.36,-4.69a4.64,4.64 0 0 0 -0.84,-5.23zm-30.43,-16.18l-0.09,0a0.64,0.64 0 0 1 0.06,0.22c-1.24,0.36 -2.66,0.18 -3.62,1.32a0.3,0.3 0 0 1 -0.51,-0.1c-0.17,-0.53 0.27,-0.71 0.6,-1a9.8,9.8 0 0 1 2.73,-0.59c0.26,0 0.59,-0.2 0.73,0.08l0.09,0l0.01,0.07zm0.12,0c-0.07,0 -0.06,0 -0.06,0l0.06,0zm29,23.26c-1.73,1.84 -3.88,1.8 -6.11,1.39a14.48,14.48 0 0 0 4.16,-0.86a6.18,6.18 0 0 0 1.55,-1c0.18,-0.18 0.42,-0.38 0.63,-0.12s-0.08,0.46 -0.23,0.62l0,-0.03zm1,-1.1c-0.34,0 -0.52,-0.15 -0.51,-0.44a0.79,0.79 0 0 1 0.78,-0.81a0.44,0.44 0 0 1 0.5,0.44c0.02,0.51 -0.38,0.71 -0.76,0.84l-0.01,-0.03z" class="cls-1"/>
  <path id="svg_48" fill="#fff" d="m101.68,126.74a3.26,3.26 0 0 0 -3.4,-2a3.33,3.33 0 0 0 -2.46,3.19a4.52,4.52 0 0 0 1.37,3.71a2.86,2.86 0 0 0 4.66,-0.86a4.41,4.41 0 0 0 -0.17,-4.04zm-3.53,0.38c-0.41,0 -0.6,-0.12 -0.59,-0.42a0.69,0.69 0 0 1 0.69,-0.71a0.45,0.45 0 0 1 0.5,0.43c0,0.51 -0.38,0.58 -0.6,0.7z" class="cls-1"/>
  <path id="svg_49" fill="#3e0c00" d="m259.37,46.99l-1.78,1.33a0.14,0.14 0 0 1 -0.15,0l-1.78,-0.7a2.38,2.38 0 0 0 0.6,-0.59l-0.7,-0.93a4.17,4.17 0 0 0 -1.36,1l-5,-2l-0.64,0.48l4.81,3.84a2.58,2.58 0 0 1 0.49,0.5l0.49,0.66a0.1,0.1 0 0 1 0,0.15l-1.4,1a12.45,12.45 0 0 0 -1.58,1.4l-2.85,-0.36l-0.53,0.4l2.24,1.41c-0.17,0.29 -0.23,0.49 -0.19,0.55s0.25,0 0.58,0l0.72,2.55l0.53,-0.4l0.46,-2.83a12,12 0 0 0 1.74,-1.09l1.4,-1a0.1,0.1 0 0 1 0.15,0l0.49,0.66a2.59,2.59 0 0 1 0.34,0.61l2.31,5.74l0.64,-0.48l-0.48,-5.34a4.22,4.22 0 0 0 1.3,-1l-0.7,-0.93a2.72,2.72 0 0 0 -0.74,0.41l-0.17,-1.9a0.18,0.18 0 0 1 0.07,-0.15l1.78,-1.33c1.3,-1 2,-2.27 1.78,-2.55s-1.61,-0.08 -2.87,0.89z" class="cls-2"/>
  <path id="svg_50" fill="#3e0c00" d="m117,68.49a2.31,2.31 0 0 0 -1.93,2.64c0.29,1.85 3,3.85 3,3.85s1.92,-2.71 1.62,-4.57a2.3,2.3 0 0 0 -2.69,-1.92zm0.52,3.33a1,1 0 0 1 -1.21,-0.88a1.06,1.06 0 1 1 1.21,0.88z" class="cls-2"/>
  <path id="svg_51" fill="#3e0c00" d="m119.63,76.07c0.06,0.39 -0.52,0.8 -1.29,0.92s-1.46,-0.09 -1.52,-0.48s0.52,-0.8 1.3,-0.92s1.45,0.09 1.51,0.48z" class="cls-2"/>
  <path id="svg_52" fill="#3e0c00" d="m184.24,55.93a1.47,1.47 0 0 0 -1.78,1c-0.29,1.15 0.76,3 0.76,3s1.8,-1.11 2.09,-2.26a1.47,1.47 0 0 0 -1.07,-1.74zm-0.52,2.08a0.68,0.68 0 1 1 0.82,-0.49a0.68,0.68 0 0 1 -0.82,0.46l0,0.03z" class="cls-2"/>
  <ellipse id="svg_53" transform="rotate(-75.8 69.75 227.84)" fill="#3e0c00" ry="0.98" rx="0.49" cy="296.73" cx="259.46" class="cls-2"/>
  <path id="svg_54" fill="#3e0c00" d="m231.5,55.6a2.32,2.32 0 0 0 -1.93,2.65c0.29,1.85 3,3.85 3,3.85s1.91,-2.72 1.62,-4.57a2.32,2.32 0 0 0 -2.69,-1.93zm0.52,3.34a1.06,1.06 0 0 1 -0.33,-2.1a1.06,1.06 0 1 1 0.33,2.1z" class="cls-2"/>
  <path id="svg_55" fill="#3e0c00" d="m234.13,63.19c0.06,0.39 -0.52,0.8 -1.3,0.92s-1.46,-0.09 -1.52,-0.48s0.52,-0.8 1.3,-0.93s1.46,0.1 1.52,0.49z" class="cls-2"/>
  <path id="svg_56" fill="#3e0c00" d="m118.78,76.67a0.31,0.31 0 0 1 -0.13,0a0.23,0.23 0 0 1 -0.08,-0.32s0.08,-0.15 0.25,-0.41a0.23,0.23 0 0 1 0.32,-0.07a0.24,0.24 0 0 1 0.07,0.33l-0.23,0.38a0.25,0.25 0 0 1 -0.2,0.09z" class="cls-2"/>
  <path id="svg_57" fill="#3e0c00" d="m119.92,74.98a0.26,0.26 0 0 1 -0.15,0a0.24,0.24 0 0 1 -0.05,-0.33c0.17,-0.24 0.36,-0.49 0.57,-0.76a0.24,0.24 0 0 1 0.33,0a0.23,0.23 0 0 1 0,0.33l-0.56,0.75a0.21,0.21 0 0 1 -0.14,0.01zm1.56,-2a0.27,0.27 0 0 1 -0.11,-0.05a0.24,0.24 0 0 1 0,-0.33l0.63,-0.72a0.24,0.24 0 0 1 0.33,0a0.23,0.23 0 0 1 0,0.33l-0.62,0.71a0.22,0.22 0 0 1 -0.23,0.09l0,-0.03z" class="cls-2"/>
  <path id="svg_58" fill="#3e0c00" d="m123.17,71.13a0.22,0.22 0 0 1 -0.17,-0.06a0.25,0.25 0 0 1 0,-0.34l0.67,-0.67a0.23,0.23 0 0 1 0.33,0a0.24,0.24 0 0 1 0,0.33c-0.23,0.22 -0.45,0.45 -0.66,0.67a0.2,0.2 0 0 1 -0.17,0.07zm93.3,-4.61a0.24,0.24 0 0 1 -0.25,-0.22a0.25,0.25 0 0 1 0.23,-0.25l0.94,0c0.15,0 0.24,0.09 0.24,0.22a0.24,0.24 0 0 1 -0.22,0.25l-0.94,0zm-1.58,0.06l-1,0a0.23,0.23 0 0 1 -0.24,-0.23c0,-0.13 0.11,-0.27 0.24,-0.24l0.94,0a0.24,0.24 0 0 1 0.24,0.24a0.25,0.25 0 0 1 -0.18,0.23zm4.09,-0.21a0.23,0.23 0 0 1 -0.24,-0.22a0.23,0.23 0 0 1 0.21,-0.25l0.94,-0.09a0.26,0.26 0 0 1 0.26,0.22a0.24,0.24 0 0 1 -0.21,0.25l-0.95,0.09l-0.01,0zm-6.61,0.21l0,0l-1,0a0.23,0.23 0 0 1 -0.23,-0.24a0.22,0.22 0 0 1 0.24,-0.23l0.94,0a0.25,0.25 0 0 1 0.24,0.24a0.24,0.24 0 0 1 -0.19,0.23zm9.12,-0.47a0.24,0.24 0 0 1 -0.25,-0.2a0.25,0.25 0 0 1 0.21,-0.27q0.46,0 0.93,-0.12a0.25,0.25 0 0 1 0.27,0.2a0.24,0.24 0 0 1 -0.2,0.27l-0.94,0.12l-0.02,0zm-11.64,0.4l0,0l-1,-0.06a0.23,0.23 0 0 1 -0.22,-0.24a0.25,0.25 0 0 1 0.25,-0.22l0.94,0a0.23,0.23 0 0 1 0.23,0.24a0.26,0.26 0 0 1 -0.2,0.28zm14.13,-0.75a0.24,0.24 0 0 1 -0.05,-0.47l0.93,-0.16a0.24,0.24 0 0 1 0.08,0.47l-0.93,0.16l-0.03,0zm-16.61,0.58s0,0 0,0l-0.95,-0.08a0.23,0.23 0 0 1 -0.21,-0.25a0.23,0.23 0 0 1 0.26,-0.22l0.94,0.08a0.24,0.24 0 0 1 0.21,0.26a0.22,0.22 0 0 1 -0.25,0.21zm-82.37,3a0.23,0.23 0 0 1 -0.19,-0.07a0.24,0.24 0 0 1 0,-0.33l0.7,-0.64a0.23,0.23 0 0 1 0.31,0.35l-0.69,0.63a0.24,0.24 0 0 1 -0.16,0.08l0.03,-0.02zm101.49,-4.06a0.23,0.23 0 0 1 -0.06,-0.46l0.92,-0.2a0.23,0.23 0 0 1 0.28,0.18a0.23,0.23 0 0 1 -0.18,0.28l-0.92,0.2l-0.04,0zm-21.63,0.81l0,0l-0.94,-0.11a0.23,0.23 0 0 1 0.06,-0.46l0.94,0.11a0.22,0.22 0 0 1 0.2,0.26a0.24,0.24 0 0 1 -0.29,0.22l0.03,-0.02zm-2.5,-0.32l0,0l-0.94,-0.14a0.24,0.24 0 0 1 -0.2,-0.27a0.24,0.24 0 0 1 0.27,-0.2l0.93,0.14a0.24,0.24 0 0 1 0,0.47l-0.06,0zm26.59,-1a0.25,0.25 0 0 1 -0.24,-0.18a0.23,0.23 0 0 1 0.17,-0.28l0.91,-0.24a0.23,0.23 0 1 1 0.12,0.45l-0.91,0.24l-0.05,0.01zm-29.08,0.66l-0.05,0l-0.93,-0.16a0.23,0.23 0 0 1 0.08,-0.46l0.93,0.16a0.23,0.23 0 0 1 0.19,0.27a0.24,0.24 0 0 1 -0.25,0.16l0.03,0.03zm31.5,-1.36a0.25,0.25 0 0 1 -0.23,-0.17a0.22,0.22 0 0 1 0.16,-0.29l0.9,-0.29a0.24,0.24 0 0 1 0.29,0.16a0.23,0.23 0 0 1 -0.15,0.29l-0.91,0.29l-0.06,0.01zm-104.51,3.63a0.27,0.27 0 0 1 -0.19,-0.08a0.25,0.25 0 0 1 0,-0.34l0.74,-0.6a0.24,0.24 0 0 1 0.29,0.37l-0.73,0.6a0.24,0.24 0 0 1 -0.11,0.05zm70.51,-2.77l-0.05,0l-0.93,-0.19a0.23,0.23 0 0 1 -0.18,-0.28a0.22,0.22 0 0 1 0.27,-0.18l0.93,0.19a0.22,0.22 0 0 1 0.18,0.27a0.22,0.22 0 0 1 -0.22,0.19zm36.38,-1.66a0.24,0.24 0 0 1 -0.23,-0.16a0.23,0.23 0 0 1 0.14,-0.3l0.88,-0.32a0.24,0.24 0 0 1 0.31,0.13a0.25,0.25 0 0 1 -0.14,0.31l-0.89,0.32l-0.07,0.02zm-38.84,1.14l-0.06,0l-0.93,-0.21a0.24,0.24 0 0 1 0.11,-0.46l0.92,0.21a0.24,0.24 0 0 1 0.18,0.28a0.25,0.25 0 0 1 -0.23,0.19l0.01,-0.01zm41.19,-2a0.23,0.23 0 0 1 -0.1,-0.45c0.3,-0.12 0.59,-0.24 0.87,-0.37a0.24,0.24 0 0 1 0.19,0.43l-0.88,0.38l-0.08,0.01zm-43.65,1.42l-0.08,0l-0.92,-0.23a0.25,0.25 0 0 1 -0.17,-0.29a0.25,0.25 0 0 1 0.29,-0.17l0.91,0.24a0.24,0.24 0 0 1 0.18,0.28a0.23,0.23 0 0 1 -0.21,0.17zm-63.61,2.32a0.22,0.22 0 0 1 -0.19,-0.1a0.23,0.23 0 0 1 0.05,-0.33l0.77,-0.56a0.23,0.23 0 0 1 0.32,0.06a0.24,0.24 0 0 1 0,0.33l-0.77,0.55a0.25,0.25 0 0 1 -0.18,0.05zm61.17,-3a0.16,0.16 0 0 1 -0.07,0l-0.91,-0.26a0.24,0.24 0 0 1 -0.17,-0.29a0.24,0.24 0 0 1 0.3,-0.16l0.9,0.25a0.24,0.24 0 0 1 0.17,0.29a0.23,0.23 0 0 1 -0.22,0.2l0,-0.03zm48.36,-1.8a0.24,0.24 0 0 1 -0.22,-0.14a0.23,0.23 0 0 1 0.11,-0.31l0.84,-0.42a0.25,0.25 0 0 1 0.32,0.11a0.23,0.23 0 0 1 -0.05,0.34l-0.85,0.42l-0.15,0zm-107.46,3.35a0.23,0.23 0 0 1 -0.21,-0.1a0.24,0.24 0 0 1 0.07,-0.33l0.8,-0.51a0.24,0.24 0 0 1 0.33,0.07a0.25,0.25 0 0 1 -0.08,0.33c-0.27,0.16 -0.53,0.33 -0.79,0.5a0.19,0.19 0 0 1 -0.12,0.04zm56.68,-2.22l-0.08,0l-0.9,-0.28a0.23,0.23 0 0 1 -0.16,-0.29a0.24,0.24 0 0 1 0.3,-0.16l0.9,0.28a0.25,0.25 0 0 1 0.16,0.29a0.23,0.23 0 0 1 -0.22,0.16zm53,-2.29a0.22,0.22 0 0 1 -0.21,-0.12a0.22,0.22 0 0 1 0.09,-0.32l0.81,-0.47a0.24,0.24 0 0 1 0.24,0.41l-0.83,0.47a0.19,0.19 0 0 1 -0.06,0.03l-0.04,0zm-55.44,1.53l-0.09,0l-0.9,-0.3a0.23,0.23 0 1 1 0.21,-0.49l0.89,0.29a0.24,0.24 0 0 1 0.15,0.3a0.22,0.22 0 0 1 -0.22,0.2l-0.04,0zm-52.14,1.66a0.24,0.24 0 0 1 -0.21,-0.12a0.23,0.23 0 0 1 0.08,-0.32l0.83,-0.47a0.23,0.23 0 0 1 0.32,0.09a0.24,0.24 0 0 1 -0.09,0.32l-0.82,0.46l-0.11,0.04zm109.78,-4.45a0.23,0.23 0 0 1 -0.14,-0.43l0.78,-0.52a0.23,0.23 0 1 1 0.27,0.38c-0.24,0.17 -0.5,0.35 -0.79,0.53a0.19,0.19 0 0 1 -0.12,0.04zm-60,2l-0.08,0l-0.9,-0.29a0.24,0.24 0 1 1 0.15,-0.45l0.9,0.29a0.23,0.23 0 0 1 0.15,0.29a0.25,0.25 0 0 1 -0.22,0.16zm-47.53,1.24a0.24,0.24 0 0 1 -0.21,-0.13a0.23,0.23 0 0 1 0.1,-0.32l0.85,-0.42a0.23,0.23 0 0 1 0.2,0.42l-0.84,0.42a0.17,0.17 0 0 1 -0.1,0.03zm45.13,-2l-0.08,0l-0.94,-0.24a0.22,0.22 0 0 1 -0.16,-0.29a0.23,0.23 0 0 1 0.29,-0.16l0.91,0.27a0.23,0.23 0 0 1 0.15,0.29a0.25,0.25 0 0 1 -0.19,0.14l0.02,-0.01zm-42.85,0.9a0.24,0.24 0 0 1 -0.23,-0.14a0.23,0.23 0 0 1 0.12,-0.31l0.87,-0.38a0.24,0.24 0 0 1 0.31,0.13a0.23,0.23 0 0 1 -0.12,0.31l-0.86,0.37l-0.09,0.02zm40.42,-1.59l-0.07,0l-0.91,-0.24a0.23,0.23 0 1 1 0.12,-0.45l0.92,0.24a0.23,0.23 0 0 1 0.16,0.29a0.23,0.23 0 0 1 -0.22,0.17l0,-0.01zm-2.44,-0.62l-0.06,0l-0.92,-0.21a0.24,0.24 0 0 1 -0.18,-0.28a0.24,0.24 0 0 1 0.29,-0.18l0.92,0.22a0.23,0.23 0 0 1 0.17,0.28a0.22,0.22 0 0 1 -0.22,0.18l0,-0.01zm-35.65,1.26a0.24,0.24 0 0 1 -0.23,-0.15a0.24,0.24 0 0 1 0.13,-0.31l0.89,-0.33a0.24,0.24 0 0 1 0.3,0.14a0.24,0.24 0 0 1 -0.14,0.31l-0.88,0.32l-0.07,0.02zm33.19,-1.8l-0.05,0l-0.93,-0.19a0.22,0.22 0 0 1 -0.18,-0.27a0.24,0.24 0 0 1 0.27,-0.19l0.93,0.19a0.22,0.22 0 0 1 0.18,0.27a0.22,0.22 0 0 1 -0.22,0.19zm-30.82,1a0.23,0.23 0 0 1 -0.23,-0.16a0.24,0.24 0 0 1 0.15,-0.3l0.91,-0.28a0.22,0.22 0 0 1 0.29,0.16a0.23,0.23 0 0 1 -0.16,0.29l-0.89,0.28l-0.07,0.01zm28.35,-1.43l-0.05,0l-0.93,-0.15a0.24,0.24 0 0 1 0.07,-0.47l0.94,0.16a0.23,0.23 0 0 1 0.19,0.27a0.24,0.24 0 0 1 -0.22,0.15l0,0.04zm-25.93,0.72a0.25,0.25 0 0 1 -0.24,-0.18a0.23,0.23 0 0 1 0.17,-0.28c0.3,-0.09 0.61,-0.16 0.92,-0.24a0.22,0.22 0 0 1 0.28,0.17a0.22,0.22 0 0 1 -0.17,0.28l-0.91,0.24l-0.05,0.01zm23.44,-1.11l0,0l-0.94,-0.12a0.23,0.23 0 0 1 -0.2,-0.26a0.25,0.25 0 0 1 0.26,-0.21l0.94,0.13a0.23,0.23 0 0 1 0.2,0.26a0.24,0.24 0 0 1 -0.26,0.16l0,0.04zm-21,0.52a0.24,0.24 0 0 1 -0.24,-0.19a0.23,0.23 0 0 1 0.18,-0.28l0.93,-0.19a0.23,0.23 0 0 1 0.28,0.19a0.24,0.24 0 0 1 -0.19,0.27l-0.92,0.19l-0.04,0.01zm18.49,-0.83l0,0l-0.93,-0.1a0.24,0.24 0 0 1 -0.22,-0.25a0.22,0.22 0 0 1 0.26,-0.21c0.31,0 0.63,0 0.94,0.09a0.24,0.24 0 0 1 0.21,0.26a0.24,0.24 0 0 1 -0.25,0.17l-0.01,0.04zm-16,0.36a0.25,0.25 0 0 1 -0.24,-0.2a0.24,0.24 0 0 1 0.2,-0.27l0.93,-0.14a0.23,0.23 0 1 1 0.07,0.46l-0.93,0.15l-0.03,0zm13.5,-0.62l0,0l-0.94,-0.06a0.24,0.24 0 0 1 -0.22,-0.25a0.23,0.23 0 0 1 0.25,-0.22l0.94,0.06a0.24,0.24 0 0 1 0.22,0.25a0.22,0.22 0 0 1 -0.25,0.22zm-11,0.23a0.22,0.22 0 0 1 -0.24,-0.21a0.23,0.23 0 0 1 0.2,-0.26l1,-0.1a0.24,0.24 0 0 1 0,0.47l-0.93,0.1l-0.03,0zm8.49,-0.35l0,0l-0.94,0a0.23,0.23 0 0 1 -0.23,-0.24a0.22,0.22 0 0 1 0.22,-0.23l0,0l0.95,0a0.22,0.22 0 0 1 0.22,0.24a0.24,0.24 0 0 1 -0.23,0.23l0.01,0zm-6,0.12a0.24,0.24 0 0 1 -0.25,-0.22a0.24,0.24 0 0 1 0.22,-0.25c0.31,0 0.63,0 0.95,-0.06a0.24,0.24 0 0 1 0.25,0.22a0.25,0.25 0 0 1 -0.23,0.25l-0.94,0.06zm3.46,-0.15l0,0l-0.94,0a0.23,0.23 0 0 1 -0.24,-0.23a0.25,0.25 0 0 1 0.23,-0.24l0,0l0.95,0a0.25,0.25 0 0 1 0.24,0.24a0.23,0.23 0 0 1 -0.23,0.23l-0.01,0z" class="cls-2"/>
  <path id="svg_59" fill="#3e0c00" d="m244.89,57.38a0.21,0.21 0 0 1 -0.19,-0.08a0.24,0.24 0 0 1 0,-0.33l0.34,-0.29a0.25,0.25 0 0 1 0.34,0a0.24,0.24 0 0 1 0,0.33a4,4 0 0 1 -0.37,0.31a0.24,0.24 0 0 1 -0.12,0.06z" class="cls-2"/>
  <path id="svg_60" fill="#31b7b7" d="m119.3,172.81c-14.31,9.36 -32.36,16.3 -50.77,20c-61.47,12.28 -66.43,-14 -66.4,-13.91c-1.18,-4.55 -0.11,-13.95 5.29,-19.81c-3.91,3.51 -12,17 -4.05,27.61c8.91,11.94 28,13.45 43.57,12.16c25.91,-2.15 54.05,-10.08 75.13,-22.54a20.52,20.52 0 0 1 -2.77,-3.51z" class="cls-3"/>
  <path id="svg_61" fill="#e3007f" d="m131.48,168.14l4.42,-3.25s1.12,-1.38 1,-1.8l0,0l0,0l0,0l0,0c-0.38,-0.27 -2.07,0.35 -2.07,0.35l-4.53,3.1l-7.26,-2.91l-0.76,0.6l4.4,3l0.59,1.48l-3,2.56l-1.86,-0.86l-0.39,0.33l1.28,1.51l-0.27,0.66l0,0l0,0l0.74,-0.06l1.11,1.64l0.44,-0.27l-0.29,-2l3.42,-2l1.28,1l1.68,5l0.82,-0.53l-0.75,-7.55z" class="cls-4"/>
  <polygon id="svg_62" fill="#e3007f" points="132.28 169.33 132.86 170.14 130.66 171.02 132.28 169.33" class="cls-4"/>
  <polygon id="svg_63" fill="#e3007f" points="132.47 171.36 133.06 172.17 130.85 173.05 132.47 171.36" class="cls-4"/>
  <polygon id="svg_64" fill="#e3007f" points="129.45 165.41 128.87 164.6 127.25 166.29 129.45 165.41" class="cls-4"/>
  <polygon id="svg_65" fill="#e3007f" points="127.55 164.53 126.97 163.72 125.35 165.41 127.55 164.53" class="cls-4"/>
  <path id="svg_66" fill="#3e0c00" d="m50.74,104.93a30.54,30.54 0 0 0 -3.76,-11.68a3.09,3.09 0 0 0 -1.55,-1.37a7.42,7.42 0 0 0 -6.36,0.2a2,2 0 0 0 -1.17,2.66c0.36,1.64 0.64,3.28 1,4.93c0.13,0.67 -0.09,1 -0.84,1.07c-2.27,0.36 -4.55,0.7 -6.85,0.91c-0.77,0.06 -0.89,-0.1 -0.74,-0.82a32.76,32.76 0 0 0 0.66,-4.74c0.22,-3.15 0.25,-6.31 0.21,-9.47c0,-0.6 0.18,-0.86 0.78,-1c1.38,-0.25 2.76,-0.57 4.14,-0.89c0.56,-0.13 1.11,-0.49 1.29,0.5c0.07,0.36 0.58,0.53 1,0.67a9.33,9.33 0 0 0 3.64,0.26a5.4,5.4 0 0 0 5.4,-6.45a23.9,23.9 0 0 0 -2.56,-8.24a4.88,4.88 0 0 0 -7.09,-1.87a1.65,1.65 0 0 0 -0.85,2c0.39,1.4 0.58,2.84 0.84,4.26c0.17,0.9 -0.15,1.13 -0.89,1.25c-1.75,0.3 -3.51,0.61 -5.26,0.93c-0.54,0.1 -0.87,0 -0.86,-0.65c0,-0.33 -0.11,-0.66 -0.13,-1c-0.14,-3.68 -0.6,-7.33 -1,-11a6,6 0 0 0 -0.92,-2.94a3.53,3.53 0 0 0 -4,-1.55a3.75,3.75 0 0 0 -2.5,3.52c0.11,3.35 0.3,6.69 0.45,10l0,0a8.56,8.56 0 0 1 0,1.34c-0.17,1 0.75,2.45 -0.44,3.11a5.93,5.93 0 0 1 -3.41,0.16l-0.22,0a2.21,2.21 0 0 1 -2,-2.77a21.31,21.31 0 0 1 0.61,-2.6c0.67,-2.36 -0.11,-4.14 -2.2,-4.92a3.9,3.9 0 0 0 -5,2a29.61,29.61 0 0 0 -2.43,9.45c-0.2,3.77 0.82,5.66 4.43,6.22a45.64,45.64 0 0 0 9.56,0.36c0.62,0 1.29,-0.25 1.29,0.81a113.09,113.09 0 0 1 -0.67,14c-0.06,0.49 -0.2,0.81 -0.8,0.85c-2.31,0.15 -4.61,0.15 -6.92,0.1c-2.07,0 -2.88,-1.21 -2.36,-3.26c0.25,-1 0.54,-2 0.72,-3a3.36,3.36 0 0 0 -2.46,-4a3.75,3.75 0 0 0 -4.72,1.86c-1.47,3.55 -2.64,7.17 -2.5,11.1c0.1,2.73 1.33,4.19 4,4.62a70,70 0 0 0 14.25,0.35a96.31,96.31 0 0 0 16.67,-2.08c0.56,-0.13 0.85,-0.07 0.72,0.64a12.69,12.69 0 0 1 -0.46,1.71c-0.37,1.15 -0.19,1.45 1,1.82a11.55,11.55 0 0 0 7.12,-0.09a5.12,5.12 0 0 0 3.77,-3.64a10.7,10.7 0 0 0 0.37,-3.63zm-12.81,-33.93a2.46,2.46 0 0 1 1.84,-1.13c0.25,0 0.6,0 0.69,0.35s-0.23,0.5 -0.49,0.62a3.36,3.36 0 0 0 -1.27,0.84a0.41,0.41 0 0 1 -0.65,0.09a0.52,0.52 0 0 1 -0.12,-0.77zm-24.71,-0.64a2.91,2.91 0 0 0 -1.22,0.72a0.49,0.49 0 0 1 -0.7,0.07a0.59,0.59 0 0 1 -0.07,-0.72a2.06,2.06 0 0 1 1.71,-1.15c0.31,0.07 0.67,0 0.77,0.36s-0.15,0.63 -0.49,0.72zm-4.55,23.57a3.21,3.21 0 0 0 -1.25,0.69c-0.19,0.21 -0.46,0.35 -0.68,0.14a0.66,0.66 0 0 1 -0.08,-0.74a2.21,2.21 0 0 1 1.63,-1.17c0.48,0 0.82,0 0.9,0.46s-0.23,0.5 -0.52,0.62zm17.29,-30.83a2.45,2.45 0 0 0 -1.08,0.73a0.5,0.5 0 0 1 -0.78,0c-0.24,-0.22 -0.14,-0.47 0,-0.7a1.87,1.87 0 0 1 1.76,-1a0.46,0.46 0 0 1 0.5,0.33a0.49,0.49 0 0 1 -0.4,0.64zm15.66,30.59a2.76,2.76 0 0 0 -1.6,0.91c-0.3,0.33 -0.68,0.52 -1,0.14a0.8,0.8 0 0 1 0,-1.11a3.93,3.93 0 0 1 2.17,-1.23c0.52,0 0.88,0.08 1,0.48a0.62,0.62 0 0 1 -0.57,0.81z" class="cls-2"/>
  <path id="svg_67" fill="#3e0c00" d="m86.56,149.45a20.45,20.45 0 0 0 -7.13,-6.36a39.77,39.77 0 0 0 -10.87,-4.22c-0.52,-0.12 -0.55,-0.27 -0.27,-0.63c0.15,-0.19 0.32,-0.37 0.47,-0.56c1.63,-2.08 3.58,-3.87 5.37,-5.8c2.35,-2.55 2.25,-5.84 -0.12,-7.82c-2.22,-1.85 -5.14,-1.67 -7.62,0.42a85.73,85.73 0 0 0 -7.15,6.86a87.37,87.37 0 0 0 -9.3,11.28c-1.48,2.22 -2.61,4.57 -2.64,6.18c0,4.53 2.34,7.35 5.73,7.83c2.35,0.34 4.58,0 5.79,-3a55.85,55.85 0 0 1 4.82,-8.94c0.43,-0.69 0.78,-0.76 1.42,-0.3s1.44,0.88 2.15,1.35c3.76,2.49 7.24,5.27 9.51,9.31a6.59,6.59 0 0 0 5.2,3.41a5.19,5.19 0 0 0 6,-4.65a6.82,6.82 0 0 0 -1.36,-4.36zm-16.33,-26c0.28,0 0.69,0 0.69,0.37s-0.41,0.16 -0.64,0.24l-0.09,0c-0.28,0 -0.72,0.42 -0.8,0s0.43,-0.54 0.84,-0.57l0,-0.04zm-9.2,9.24a1.83,1.83 0 0 1 -0.28,0.4a87.23,87.23 0 0 0 -5.87,6.58c-0.25,0.29 -0.56,0.92 -0.94,0.64s0.11,-0.75 0.33,-1.09a35.87,35.87 0 0 1 5.86,-6.68c0.17,-0.17 0.37,-0.44 0.7,-0.25a0.32,0.32 0 0 1 0.2,0.44l0,-0.04z" class="cls-2"/>
  <path id="svg_68" fill="#3e0c00" d="m246.5,96.14c-0.31,-1.81 -0.89,-2.2 -2.73,-2.13c-1.64,0.06 -3.28,0.07 -4.92,0.14c-0.74,0 -0.59,-0.57 -0.76,-1s-0.2,-0.64 0.25,-0.87a22.25,22.25 0 0 0 1.92,-1.16a20.39,20.39 0 0 0 4.24,-3.32c2,-2.29 1.25,-5.14 -1.61,-6.19a14.56,14.56 0 0 0 -6.32,-0.59a33,33 0 0 0 -7,1.21a2.3,2.3 0 0 0 -1.83,2.74a2.54,2.54 0 0 0 2.42,2.36c1.12,-0.06 2.24,-0.18 3.36,-0.25a11.93,11.93 0 0 1 3.91,0c0.73,0.19 0.86,0.53 0.48,1.19a5,5 0 0 1 -1.33,1.33a1,1 0 0 1 -1.21,0.12a2.63,2.63 0 0 0 -1.59,-0.2a2.15,2.15 0 0 0 -2,2.94l0.33,1.22c0.1,0.4 0.07,0.64 -0.48,0.64c-1.24,0 -2.48,0.07 -3.72,0.12a1.7,1.7 0 0 0 -1.69,1.33a7.54,7.54 0 0 0 -0.21,2.37c0,1.75 0.81,2.51 2.56,2.53c1.4,0 2.81,0 4.21,0.06c0.26,0 0.6,-0.09 0.61,0.36a9.11,9.11 0 0 1 -0.25,3.41a1.26,1.26 0 0 1 -1.73,1a1.59,1.59 0 0 0 -2.12,0.94a3.73,3.73 0 0 0 2.11,5.17a6.9,6.9 0 0 0 4.88,-0.16c2.26,-0.91 3,-2.9 3.43,-5a14.72,14.72 0 0 0 0.14,-4.82c-0.06,-0.55 0.13,-0.72 0.65,-0.69s1,0 1.55,0l1.55,0a2.61,2.61 0 0 0 2.42,-1.4a4.93,4.93 0 0 0 0.48,-3.4zm-16.77,-13a10.06,10.06 0 0 1 -0.9,1c-0.12,0.1 -0.21,-0.13 -0.25,-0.25c-0.1,-0.42 0.53,-1.05 1,-1c0.09,-0.03 0.21,0.04 0.15,0.2l0,0.05zm-1.49,12.2c-0.68,0.12 -1.12,0.41 -1.16,1.16c0,0.23 -0.05,0.61 -0.39,0.55s-0.29,-0.41 -0.22,-0.69a2,2 0 0 1 1.71,-1.5c0.23,0 0.56,0 0.59,0.24s-0.34,0.16 -0.53,0.19l0,0.05zm1.84,11.59a3.19,3.19 0 0 0 -0.39,1c0,0.18 0.1,0.5 -0.23,0.48s-0.18,-0.35 -0.23,-0.52a2.09,2.09 0 0 1 0.48,-1.25a0.26,0.26 0 0 1 0.36,-0.11c0.18,0.14 0.06,0.28 0.01,0.4zm0.19,-0.61a0.15,0.15 0 0 1 -0.2,-0.13a0.31,0.31 0 0 1 0.28,-0.34c0.13,0 0.13,0.1 0.16,0.16s-0.14,0.27 -0.24,0.31z" class="cls-2"/>
  <path id="svg_69" fill="#3e0c00" d="m226.27,103.37a9,9 0 0 0 -2.1,-1.64c-0.23,-0.13 -0.54,-0.26 -0.36,-0.64a23.52,23.52 0 0 0 2,-7c0,-0.21 0.09,-0.3 0.34,-0.35a1.37,1.37 0 0 0 1.26,-1.48c0,-0.63 0,-1.27 0,-1.9a1.55,1.55 0 0 0 -1.9,-1.62l-2,0.17c-1.59,0.14 -1.59,0.14 -1.59,-1.48l0,-0.37a7.67,7.67 0 0 0 -0.31,-2.48a5.5,5.5 0 0 0 -2.84,-3.81a2.26,2.26 0 0 0 -2.39,0.14a2.35,2.35 0 0 0 -0.93,2.36a21.53,21.53 0 0 1 -0.05,5.67c-0.06,0.48 -0.26,0.67 -0.76,0.69c-1.31,0.07 -2.61,0.19 -3.92,0.29a1.45,1.45 0 0 0 -1.35,1.06a1.62,1.62 0 0 0 1.63,2.15c0.86,0 1.73,0.12 2.6,0.11c0.57,0 0.63,0.17 0.4,0.64a23.7,23.7 0 0 1 -2.52,4q-1.47,1.89 0.75,2.68a25.18,25.18 0 0 1 3.68,1.73c0.51,0.28 0.55,0.48 0.05,0.81a25,25 0 0 1 -4,2.05c-1.65,0.69 -1.83,2.07 -0.42,3.18a5.3,5.3 0 0 0 5,0.73a7.94,7.94 0 0 0 3.51,-2.24c0.67,-0.71 0.68,-0.71 1.25,0.1c0.27,0.38 0.52,0.78 0.8,1.16a2.77,2.77 0 0 0 2.54,1.36a2.94,2.94 0 0 0 2.6,-2.08a3.91,3.91 0 0 0 -0.97,-3.99zm-16.23,-12.09s-0.16,-0.09 -0.18,-0.16c-0.13,-0.32 0.1,-0.51 0.31,-0.7a0.49,0.49 0 0 1 0.63,-0.08s0.07,0.1 0.15,0.22c-0.48,0.06 -0.58,0.53 -0.91,0.72zm2.84,9a1.14,1.14 0 0 1 -0.26,-0.09c-0.49,-0.21 -1.15,-0.3 -1.21,-0.92a2.24,2.24 0 0 1 0.87,-1.83a1.09,1.09 0 0 1 -0.16,0.84c-0.4,1 -0.13,1.39 0.92,1.5c0.25,0 0.75,-0.22 0.7,0.26s-0.54,0.22 -0.86,0.21l0,0.03zm3.31,-18c-0.12,0 -0.2,-0.15 -0.22,-0.31a1.14,1.14 0 0 1 0.89,-0.94c0.22,0 0.45,0.18 0.36,0.3a9.65,9.65 0 0 1 -1.03,0.92l0,0.03zm6.18,12.38a16.13,16.13 0 0 1 -2.22,4.28a0.68,0.68 0 0 1 -0.86,0.32c-0.63,-0.19 -1.28,-0.27 -1.92,-0.4c-0.13,0 -0.32,0 -0.36,-0.14s0.14,-0.22 0.24,-0.31a12.75,12.75 0 0 0 3.21,-4.39c0.27,-0.62 0.71,-0.47 1.28,-0.47c1.04,0.02 1.03,0.02 0.63,1.11z" class="cls-2"/>
  <path id="svg_70" fill="#3e0c00" d="m204.43,152.77c-1.65,-0.81 -3.31,-1.59 -4.95,-2.41c-2.12,-1 -2.1,-1 -0.89,-3.12c1.86,-3.18 3.25,-6.5 2.95,-10.29a6.45,6.45 0 0 0 -2.61,-5c-1.63,-1.19 -3.21,-0.71 -3.91,1.14c-0.57,1.49 -1.12,3 -1.78,4.45a27,27 0 0 1 -4.07,6.43c-0.35,0.41 -0.72,0.91 -1.43,0.5c-0.43,-0.25 -0.88,-0.32 -0.94,-1a105.35,105.35 0 0 0 -2,-13.56c-0.5,-2.34 -1,-4.72 -2.55,-6.66a5.92,5.92 0 0 0 -7.14,-1.7a5.57,5.57 0 0 0 -3.24,6.6a138.55,138.55 0 0 1 3.05,24.08a34.74,34.74 0 0 1 -0.53,7.05c-0.66,3.09 -1.49,3.74 -4.52,3.14c-1.87,-0.36 -2.83,0.15 -3.56,1.92c-1.1,2.63 0.25,7 2.72,8.91a10.5,10.5 0 0 0 15.16,-3c2,-3.52 2.63,-7.41 3,-11.37c0,-0.36 -0.13,-0.84 0.28,-1s0.75,0.31 1,0.58q2.73,2.77 5.4,5.61a6,6 0 0 0 2.27,1.64a9.16,9.16 0 0 0 9.72,-1.94c4.04,-3.52 3.32,-8.65 -1.43,-11zm-30.82,-26.15c-0.28,0.29 -0.61,0 -0.71,-0.37c-0.2,-0.74 1.06,-2.43 1.86,-2.53c0.27,0 0.46,0 0.51,0.4c-0.83,0.63 -0.9,1.81 -1.66,2.5z" class="cls-2"/>
  <path id="svg_71" fill="#3e0c00" d="m172.27,142.76a4.54,4.54 0 0 0 -2.88,-4.19a8.84,8.84 0 0 0 -4,-0.54a38.67,38.67 0 0 0 -10.1,2.58a4.86,4.86 0 0 0 -2.78,6.16c0.78,2.29 2,2.95 4.34,2.36c1.69,-0.42 3.37,-0.9 5.07,-1.24c1.34,-0.26 1.61,0.09 1.11,1.3a16.93,16.93 0 0 1 -7,8.57c-2.22,1.29 -2.92,3.14 -2.08,5.22s3.5,3.63 5.5,3.11a13.48,13.48 0 0 0 6.92,-4.16a24.48,24.48 0 0 0 6,-16.48a26.79,26.79 0 0 0 -0.1,-2.69zm-17.27,1.62a0.36,0.36 0 0 1 -0.49,0.35c-0.44,-0.12 -0.54,-0.46 -0.5,-0.87c0.17,-1.77 1.77,-2.7 3.62,-2c-1.45,0.31 -2.69,0.72 -2.63,2.52z" class="cls-2"/>
  <path id="svg_72" fill="#3e0c00" d="m155.59,151.64a2.71,2.71 0 0 0 -2.13,-1.54c-4.74,0.36 -9.11,0.64 -13.46,1c-2.73,0.26 -3.74,1.93 -2.62,4.41c1.51,3.34 3.14,6.62 4.81,9.88a2.77,2.77 0 0 0 4.87,0.4c2.84,-3.8 5.57,-7.7 8.36,-11.54a2.31,2.31 0 0 0 0.17,-2.61zm-15.42,1.29c-0.47,0.66 -0.63,1.54 -1.36,2c-0.4,-0.12 -0.71,-0.26 -0.61,-0.68a3.53,3.53 0 0 1 0.36,-0.9c0.31,-0.51 0.66,-1.06 1.35,-1a0.39,0.39 0 0 1 0.26,0.58z" class="cls-2"/>
  <path id="svg_73" fill="#3e0c00" d="m155.75,134.1c-2.8,-3.25 -5.58,-6.52 -8.42,-9.74c-1.66,-1.89 -3.7,-1.62 -4.9,0.62q-2.49,4.68 -4.87,9.4c-1.35,2.68 -0.16,4.59 2.83,4.61c2.59,0 5.19,0 7.78,0l0,-0.13l5.39,0a2.71,2.71 0 0 0 2.75,-1.61a2.83,2.83 0 0 0 -0.56,-3.15zm-11.89,-8.07c-0.16,-0.14 -0.36,-0.28 -0.3,-0.56a2.45,2.45 0 0 1 2.36,-1.1a0.66,0.66 0 0 1 0.37,0.55a4.16,4.16 0 0 1 -2.43,1.11z" class="cls-2"/>
  <path id="svg_86" fill="#3e0c00" d="m42.24,134.93c-1.46,0.08 -2.21,0.21 -3.68,0.32c-0.27,0 -0.62,0.1 -0.53,-0.36s-0.33,-0.93 0.48,-0.94s1,-0.14 1.79,-0.1c1.87,0.08 2.63,-1.35 2,-3.13a1.13,1.13 0 0 0 -1.38,-0.84c-1.07,0.09 -1.43,0.18 -2.49,0.3c-0.4,0.05 -0.47,-0.16 -0.5,-0.47s0.13,-0.42 0.43,-0.39c1.17,0.08 1.62,-0.12 2.79,-0.1a1.88,1.88 0 0 0 2,-1.41a1.85,1.85 0 0 0 -1.46,-2.67c-1.43,0 -2.15,0.08 -3.57,0.15c-0.61,0 -0.67,0 -0.78,-0.8c-0.08,-0.6 0.38,-0.46 0.65,-0.47c1.15,-0.06 1.59,0 2.74,-0.07a2.1,2.1 0 0 0 2.19,-2.14a1.78,1.78 0 0 0 -1.75,-2c-1.72,0.13 -2.73,0.16 -4.45,0.25c-1.92,0.1 -3.13,0.22 -5,0.3a1,1 0 0 0 -0.86,0.43a2.65,2.65 0 0 0 -0.37,2a1.44,1.44 0 0 0 1.58,1.23c0.95,0 1.2,0 2.15,0c0.46,0 0.61,0.14 0.54,0.57a1.09,1.09 0 0 0 0,0.36c0.05,0.33 -0.08,0.43 -0.42,0.44c-1.09,0 -1.47,0.15 -2.55,0.17a1.06,1.06 0 0 0 -1.07,0.68a2.75,2.75 0 0 0 -0.21,1.91a1.52,1.52 0 0 0 1.54,1.15c1,0 1.2,0 2.15,0c0.24,0 0.59,-0.1 0.52,0.34s0.22,0.84 -0.47,0.88c-1,0 -1.19,0.15 -2.13,0.27a1.68,1.68 0 0 0 -1.37,2.38a1.4,1.4 0 0 0 1.6,1.11c0.71,0 0.71,-0.07 1.43,-0.07c0.2,0 0.55,-0.19 0.6,0.24c0.07,0.74 -0.12,1.11 -0.58,1.14a12.88,12.88 0 0 1 -1.84,0.18c-1.18,0 -1.71,0.87 -1.69,2a1.63,1.63 0 0 0 1.78,1.77c2,-0.05 3.22,0 5.18,0l0,-0.06c2,0 3.34,0 5.37,0a1.36,1.36 0 0 0 1.33,-0.81a3.82,3.82 0 0 0 0.44,-1.72a2,2 0 0 0 -2.13,-2.02zm-10.62,-13.8c-0.16,0.09 -0.18,0.42 -0.47,0.31c0,0 -0.05,-0.16 0,-0.21c0.14,-0.23 0.27,-0.53 0.69,-0.34c-0.1,0.1 -0.14,0.19 -0.22,0.24zm-0.35,5.55c-0.09,0.07 -0.2,0 -0.18,-0.12a0.73,0.73 0 0 1 0.47,-0.56c0.13,0 0.17,0.06 0.25,0.19a6.43,6.43 0 0 1 -0.54,0.49zm0.44,4.93l-0.34,0.46c-0.28,-0.31 -0.09,-0.49 0,-0.67s0.24,-0.29 0.39,-0.16s0.04,0.26 -0.05,0.37zm-0.7,5.37c-0.12,0.07 -0.17,-0.07 -0.16,-0.16a0.8,0.8 0 0 1 0.47,-0.56c0.12,-0.07 0.16,0 0.22,0.13a1.44,1.44 0 0 1 -0.53,0.59z" class="cls-2"/>
  <path id="svg_87" fill="#3e0c00" d="m31.22,117.45a12.93,12.93 0 0 0 -0.56,-1.73a1,1 0 0 0 -1.66,-0.5c-1.65,1.08 -3.29,2.18 -4.92,3.27a1.53,1.53 0 0 0 -0.5,1.86c0.24,0.82 0.74,1.27 1.46,1.2s0.6,0.24 0.53,0.62a12.72,12.72 0 0 0 -0.07,1.95c-0.11,2.24 -0.07,4.48 -0.25,6.72a29.78,29.78 0 0 1 -1,6.58a1.82,1.82 0 0 0 0.21,1.58a2.81,2.81 0 0 0 2.64,1.11a2.53,2.53 0 0 0 2.15,-2.3a46.37,46.37 0 0 0 0.25,-5.27c0,-1.43 -0.08,-2.85 -0.14,-4.28c-0.09,-2.24 -0.17,-4.48 -0.45,-6.71c-0.21,-1.68 -0.21,-1.68 1.35,-2.42l0.17,-0.09a1.22,1.22 0 0 0 0.79,-1.59zm-1.16,-1.76c-0.09,0.34 -0.48,0 -0.71,0.19a0.17,0.17 0 0 1 -0.27,-0.16c0,-0.3 0.29,-0.31 0.55,-0.32s0.5,0.01 0.43,0.29z" class="cls-2"/>
  <path id="svg_88" fill="#3e0c00" d="m36.78,114.36a2.61,2.61 0 0 0 0,5.21a2.57,2.57 0 0 0 2.59,-2.64a2.47,2.47 0 0 0 -2.59,-2.57zm-1,1.79c-0.27,0 -0.35,-0.22 -0.34,-0.44a0.56,0.56 0 0 1 0.54,-0.59c0.23,0 0.35,0.14 0.38,0.34s-0.28,0.64 -0.62,0.69l0.04,0z" class="cls-2"/>
  <path id="svg_89" fill="#3e0c00" d="m21.05,136.64c-1.46,0.08 -2.22,0.21 -3.68,0.32c-0.28,0 -0.62,0.1 -0.53,-0.35s-0.33,-0.94 0.48,-1s1,-0.14 1.78,-0.1c1.88,0.08 2.64,-1.35 2.05,-3.13a1.15,1.15 0 0 0 -1.39,-0.84c-1.06,0.1 -1.42,0.18 -2.48,0.31c-0.41,0 -0.47,-0.17 -0.5,-0.48s0.13,-0.41 0.43,-0.39c1.17,0.08 1.62,-0.12 2.79,-0.1a2.07,2.07 0 0 0 0.56,-4.08c-1.43,0 -2.15,0.08 -3.57,0.16c-0.61,0 -0.68,0 -0.78,-0.8s0.38,-0.47 0.65,-0.48c1.15,-0.06 1.59,0 2.74,-0.07a2.09,2.09 0 0 0 2.19,-2.14a1.78,1.78 0 0 0 -1.75,-2c-1.72,0.14 -2.73,0.17 -4.45,0.25c-1.92,0.1 -3.13,0.22 -5,0.3a1,1 0 0 0 -0.87,0.43a2.67,2.67 0 0 0 -0.36,2.06a1.44,1.44 0 0 0 1.58,1.22c0.95,0 1.19,0 2.15,0c0.46,0 0.61,0.14 0.54,0.57a1.09,1.09 0 0 0 0,0.36c0.05,0.34 -0.08,0.43 -0.42,0.45c-1.09,0 -1.47,0.14 -2.56,0.16a1.08,1.08 0 0 0 -1.07,0.68a2.8,2.8 0 0 0 -0.21,1.98a1.52,1.52 0 0 0 1.54,1.15l2.15,0c0.23,0 0.59,-0.09 0.51,0.34s0.23,0.84 -0.46,0.88c-0.95,0.06 -1.19,0.15 -2.13,0.27a1.69,1.69 0 0 0 -1.42,2.36a1.39,1.39 0 0 0 1.6,1.11c0.72,0 0.72,-0.06 1.43,-0.07c0.21,0 0.56,-0.19 0.6,0.24c0.07,0.74 -0.11,1.11 -0.58,1.15a12.71,12.71 0 0 1 -1.83,0.17c-1.18,0 -1.71,0.88 -1.7,2.05a1.63,1.63 0 0 0 1.78,1.76c2,0 3.22,0 5.19,0l0,-0.06l5.32,0a1.35,1.35 0 0 0 1.34,-0.81a4,4 0 0 0 0.44,-1.71a2,2 0 0 0 -2.1,-2.12zm-10.62,-13.78c-0.17,0.1 -0.18,0.43 -0.47,0.31c0,0 -0.05,-0.16 0,-0.21c0.14,-0.23 0.26,-0.53 0.69,-0.34c-0.1,0.1 -0.15,0.2 -0.22,0.24zm-0.35,5.55c-0.1,0.08 -0.2,0 -0.18,-0.12a0.7,0.7 0 0 1 0.47,-0.55c0.12,-0.05 0.17,0.05 0.25,0.18c-0.18,0.16 -0.35,0.35 -0.54,0.49zm0.43,4.93c-0.1,0.14 -0.2,0.29 -0.33,0.46c-0.28,-0.31 -0.09,-0.49 0.05,-0.67s0.24,-0.28 0.39,-0.16s-0.02,0.26 -0.11,0.37zm-0.69,5.37c-0.12,0.07 -0.17,-0.07 -0.16,-0.16a0.79,0.79 0 0 1 0.46,-0.56c0.13,-0.06 0.17,0.05 0.23,0.14a1.48,1.48 0 0 1 -0.53,0.58z" class="cls-2"/>
  <path id="svg_90" fill="#3e0c00" d="m10.03,119.18a13.41,13.41 0 0 0 -0.56,-1.73a1,1 0 0 0 -1.66,-0.5l-4.93,3.28a1.54,1.54 0 0 0 -0.5,1.86c0.25,0.81 0.75,1.27 1.46,1.19s0.61,0.24 0.54,0.62a11.57,11.57 0 0 0 -0.07,1.95c-0.11,2.24 -0.07,4.49 -0.25,6.73a29.22,29.22 0 0 1 -1,6.57a1.86,1.86 0 0 0 0.22,1.58a2.78,2.78 0 0 0 2.64,1.11a2.51,2.51 0 0 0 2.15,-2.29a46.66,46.66 0 0 0 0.25,-5.28c0,-1.42 -0.08,-2.85 -0.14,-4.27c-0.09,-2.24 -0.17,-4.48 -0.45,-6.71c-0.21,-1.68 -0.21,-1.68 1.35,-2.43l0.16,-0.09a1.22,1.22 0 0 0 0.79,-1.59zm-1.16,-1.76c-0.09,0.35 -0.49,0.05 -0.72,0.2a0.17,0.17 0 0 1 -0.26,-0.16c0,-0.3 0.29,-0.31 0.55,-0.33s0.5,0.01 0.43,0.29z" class="cls-2"/>
  <path id="svg_91" fill="#3e0c00" d="m15.58,116.09a2.61,2.61 0 0 0 0,5.22a2.58,2.58 0 0 0 2.56,-2.7a2.48,2.48 0 0 0 -2.56,-2.52zm-1,1.8c-0.27,0 -0.35,-0.23 -0.34,-0.45a0.56,0.56 0 0 1 0.54,-0.59a0.35,0.35 0 0 1 0.38,0.34c-0.11,0.35 -0.27,0.65 -0.61,0.74l0.03,-0.04z" class="cls-2"/>
  <path id="svg_92" fill="#3e0c00" d="m39.8,152.87c-0.67,-0.48 -1.87,-0.81 -2,-1.37s0.7,-1.49 1.05,-2.27c1.59,-3.59 0.33,-7.31 -3.6,-8.59a15.26,15.26 0 0 0 -4.36,-0.81a64,64 0 0 0 -10.32,0.93c-1.19,0.28 -2.4,0.53 -3.59,0.84c-1.69,0.43 -3.4,0.8 -4.54,2.31a3.5,3.5 0 0 0 -0.43,4.05c0.61,1 1.63,1.29 3.41,0.89c2.54,-0.58 5.06,-1.21 7.61,-1.75a22.26,22.26 0 0 1 6.13,-0.71c0.57,0 1.25,0 1.28,0.86a2.44,2.44 0 0 1 -2.21,2.2a27.08,27.08 0 0 0 -9.61,1.5a12.44,12.44 0 0 0 -3.81,2a1.05,1.05 0 0 0 -0.53,1.11c0.14,0.54 0.62,0.54 1,0.64a3.21,3.21 0 0 0 0.54,0a28,28 0 0 1 6.8,1.23c-0.88,0.66 -1.53,1.17 -2.2,1.65a48.25,48.25 0 0 1 -6.51,3.92c-0.8,0.4 -1.7,0.93 -1.46,2s1.26,1.16 2.19,1.2a9.47,9.47 0 0 0 4.14,-0.73a62.08,62.08 0 0 0 9.88,-4.7a1.2,1.2 0 0 1 1.71,0.18a25.9,25.9 0 0 1 2.14,2.31a4.16,4.16 0 0 0 5,1.35a7.77,7.77 0 0 0 3.26,-2.28a5.14,5.14 0 0 0 -0.97,-7.96zm-25.19,-7a0.43,0.43 0 0 1 -0.53,0.41a0.59,0.59 0 0 1 -0.46,-0.55a3,3 0 0 1 1.17,-2.23a2.14,2.14 0 0 1 2.43,-0.54c-1.52,0.45 -2.6,1.19 -2.61,2.97l0,-0.06zm2.11,7.24c-0.19,0.38 -0.65,0.5 -1,0.67a0.21,0.21 0 0 1 -0.29,-0.22c0.06,-0.53 0.48,-0.66 0.91,-0.79c0.2,0.01 0.49,0.16 0.38,0.35l0,-0.01z" class="cls-2"/>
  <path id="svg_93" fill="#3e0c00" d="m210.88,121.05c0,-0.37 0,-0.73 0,-1.09a0.51,0.51 0 1 0 -1,0c0,0.21 0,0.42 0,0.63c0,0.83 0,1.67 0,2.5l0,0.17a0.23,0.23 0 0 1 -0.11,-0.11l-1.88,-3.34a0.83,0.83 0 0 0 -1.18,-0.27a0.92,0.92 0 0 0 -0.37,0.88c0,0.85 0,1.7 0,2.56c0,0.5 0,1 0,1.52a0.5,0.5 0 1 0 1,0c0,-0.4 0,-0.8 0,-1.2l0,-1.29c0,-0.36 0,-0.73 0,-1.08a0.48,0.48 0 0 1 0.09,0.13l1,1.78c0.38,0.66 0.77,1.32 1.16,2a0.62,0.62 0 0 0 0.73,0.31a0.63,0.63 0 0 0 0.47,-0.65c0,-0.44 0,-0.88 0,-1.33c0.07,-0.73 0.09,-1.43 0.09,-2.12zm-3.89,-1.33a1,1 0 0 0 -0.26,0.35s0,0.05 -0.08,0s0,-0.05 0,-0.08a0.6,0.6 0 0 1 0.31,-0.4s0.06,0 0.08,0s-0.03,0.11 -0.05,0.13z" class="cls-2"/>
  <path id="svg_94" fill="#3e0c00" d="m216.02,120.86a2.31,2.31 0 0 0 -2,-1.37a5.42,5.42 0 0 0 -1.45,0.08a0.16,0.16 0 0 1 -0.16,0a0.47,0.47 0 0 0 -0.53,-0.06a0.51,0.51 0 0 0 -0.28,0.49c0,0.54 0,1.07 0,1.6s0,1 0,1.44l0,0c0,0.53 0,1.06 0,1.6a0.52,0.52 0 0 0 0.29,0.51a0.5,0.5 0 0 0 0.58,-0.12a0.12,0.12 0 0 1 0.15,0a7.09,7.09 0 0 0 0.91,0.12a2.67,2.67 0 0 0 1.45,-0.26a2.41,2.41 0 0 0 1.38,-2a3.39,3.39 0 0 0 -0.34,-2.03zm-4,-1.14a0.27,0.27 0 0 0 -0.13,0.15s-0.05,0.1 -0.11,0.07a0.11,0.11 0 0 1 -0.06,-0.13a0.35,0.35 0 0 1 0.23,-0.24a0.12,0.12 0 0 1 0.12,0s0,0.13 -0.04,0.15l-0.01,0zm3,3.51a1.44,1.44 0 0 1 -1.15,0.83a3.32,3.32 0 0 1 -1.25,-0.1c-0.08,0 -0.1,-0.06 -0.1,-0.14c0,-0.7 0,-1.39 0,-2.09l0,0c0,-0.35 0,-0.7 0,-1.05c0,-0.1 0,-0.13 0.13,-0.15a4.55,4.55 0 0 1 0.9,-0.07a1.46,1.46 0 0 1 1.38,0.8a2.17,2.17 0 0 1 0.12,1.97l-0.03,0z" class="cls-2"/>
  <path id="svg_95" fill="#3e0c00" d="m193.57,120.24c0.63,0 1.26,0 1.89,0a0.5,0.5 0 0 0 0.37,-0.86a0.58,0.58 0 0 0 -0.44,-0.15l-2.71,0c-0.41,0 -0.6,0.19 -0.61,0.6l0,2.23c0,0.77 0,1.54 0,2.31a0.48,0.48 0 0 0 0.48,0.53l2.94,0a0.45,0.45 0 0 0 0.43,-0.27a0.46,0.46 0 0 0 0,-0.5a0.5,0.5 0 0 0 -0.55,-0.2l-1.89,0c-0.35,0 -0.48,-0.15 -0.48,-0.49s0,-0.53 0,-0.8c0,-0.1 0,-0.13 0.13,-0.12l1.8,0a0.55,0.55 0 0 0 0.18,0a0.5,0.5 0 0 0 -0.15,-1c-0.6,0 -1.21,0 -1.82,0c-0.1,0 -0.12,0 -0.12,-0.12s0,-0.43 0,-0.65a0.49,0.49 0 0 1 0.55,-0.51zm-0.91,-0.68a0.43,0.43 0 0 0 -0.19,0.21s0,0.12 -0.13,0.09a0.12,0.12 0 0 1 -0.08,-0.15a0.35,0.35 0 0 1 0.34,-0.31c0.05,0 0.1,0 0.11,0.06s-0.02,0.08 -0.05,0.1z" class="cls-2"/>
  <path id="svg_96" fill="#3e0c00" d="m203.78,119.6a0.37,0.37 0 0 0 -0.36,-0.29a0.4,0.4 0 0 0 -0.39,0.26l-1.26,2.75c-0.29,0.63 -0.57,1.26 -0.87,1.89a0.5,0.5 0 0 0 0.48,0.73a0.51,0.51 0 0 0 0.44,-0.35c0.16,-0.36 0.34,-0.71 0.48,-1.07a0.27,0.27 0 0 1 0.3,-0.2l1.33,0c0.12,0 0.21,0 0.24,0.14a0.94,0.94 0 0 0 0.06,0.15c0.14,0.38 0.28,0.77 0.44,1.15a0.46,0.46 0 0 0 0.55,0.27a0.49,0.49 0 0 0 0.39,-0.48a0.69,0.69 0 0 0 -0.05,-0.24c-0.59,-1.61 -1.19,-3.16 -1.78,-4.71zm-0.35,-0.17c0.05,0 0.09,0 0.1,0s0,0.07 0,0.09a0.33,0.33 0 0 0 -0.15,0.16s0,0.08 -0.09,0.06a0.12,0.12 0 0 1 -0.07,-0.11a0.28,0.28 0 0 1 0.21,-0.2zm0.23,2.85l-0.58,0c-0.24,0 -0.24,0 -0.14,-0.22l0.36,-0.76s0,-0.06 0,-0.06s0,0 0.05,0l0.33,0.88c0.07,0.16 0.02,0.16 -0.02,0.16z" class="cls-2"/>
  <path id="svg_97" fill="#3e0c00" d="m191.13,119.34a5.75,5.75 0 0 0 -1.37,-0.21a2.48,2.48 0 0 0 -2.42,1.73a3.65,3.65 0 0 0 0.07,2.46a2.21,2.21 0 0 0 1.34,1.33a3.9,3.9 0 0 0 1.33,0.21a4.74,4.74 0 0 0 0.83,-0.05a0.51,0.51 0 0 0 0.44,-0.55a0.5,0.5 0 0 0 -0.58,-0.44a3.09,3.09 0 0 1 -1.32,0a1.41,1.41 0 0 1 -1.07,-1a3.07,3.07 0 0 1 0.06,-1.7a1.14,1.14 0 0 1 0.74,-0.82a2.37,2.37 0 0 1 1,-0.07c0.26,0 0.51,0.12 0.76,0.16a0.5,0.5 0 0 0 0.56,-0.38a0.52,0.52 0 0 0 -0.37,-0.67zm-2.31,0.3a3.64,3.64 0 0 0 -0.53,0.44s0,0 -0.08,0a0.11,0.11 0 0 1 0,0a1.16,1.16 0 0 1 0.6,-0.51a0.06,0.06 0 0 1 0.06,0s-0.03,0.06 -0.05,0.07z" class="cls-2"/>
  <path id="svg_98" fill="#3e0c00" d="m199.8,123.93l-0.65,0c-0.5,0 -1,0 -1.49,0c-0.13,0 -0.16,-0.05 -0.15,-0.16c0.05,-0.41 0.06,-0.83 0.09,-1.24c0.06,-0.91 0.11,-1.82 0.16,-2.72a0.47,0.47 0 0 0 -0.32,-0.47a0.48,0.48 0 0 0 -0.57,0.19a0.68,0.68 0 0 0 -0.09,0.37c0,0.38 0,0.76 -0.07,1.14c-0.05,0.77 -0.11,1.54 -0.16,2.31l-0.06,1a0.51,0.51 0 0 0 0.45,0.59l0.4,0l2.24,0l0,0a2.45,2.45 0 0 0 0.27,0a0.47,0.47 0 0 0 0.42,-0.5a0.5,0.5 0 0 0 -0.47,-0.51zm-2.54,-4.41a0.62,0.62 0 0 0 -0.16,0.2s0,0.07 -0.08,0s-0.05,-0.06 0,-0.1a0.33,0.33 0 0 1 0.21,-0.26s0.08,0 0.1,0s-0.04,0.14 -0.07,0.16z" class="cls-2"/>
  <path id="svg_99" fill="#3e0c00" d="m185.97,119.02a0.52,0.52 0 0 0 -0.49,0.51c0,0.79 0,1.57 0,2.36s0,1.59 0,2.38a0.58,0.58 0 0 0 0,0.23a0.51,0.51 0 0 0 0.58,0.29a0.49,0.49 0 0 0 0.37,-0.5c0,-1.58 0,-3.16 0.07,-4.74a0.51,0.51 0 0 0 -0.53,-0.53zm0,0.33a0.46,0.46 0 0 0 -0.16,0.18s0,0.08 -0.09,0.06a0.1,0.1 0 0 1 -0.07,-0.12a0.32,0.32 0 0 1 0.27,-0.25a0.1,0.1 0 0 1 0.1,0s-0.01,0.11 -0.04,0.13l-0.01,0z" class="cls-2"/>
  <path id="svg_100" fill="#3e0c00" d="m247.13,153.93c-0.68,-1.65 -2.2,-2.41 -4.11,-2.74a54.15,54.15 0 0 0 -12.72,-0.27q-5.51,0.31 -10.93,1.18c-0.59,0.1 -0.77,0 -0.54,-0.54s0.06,-0.77 0.49,-1.13s0.28,-0.19 2.32,-0.41c0.34,0 0.68,-0.06 1,-0.08c4.38,-0.23 15.4,-1.07 19.78,-1.36c2.61,-0.17 4.06,-2.53 2.9,-4.55c-0.93,-1.61 -2.6,-1.88 -4.44,-1.79c-4.18,0.21 -15.64,1.07 -19.82,1.3c-0.54,0 0,-1.74 0,-2.43c0.19,0.06 0.38,0.14 0.59,0.19a24.16,24.16 0 0 0 6.35,0.62a31,31 0 0 0 10.76,-1.62a8.4,8.4 0 0 0 4.83,-3.68a9.38,9.38 0 0 0 -1.18,-9.93a11.75,11.75 0 0 0 -7.32,-3.92a23.94,23.94 0 0 0 -8.1,0a8.94,8.94 0 0 0 2.22,-2.71a4.75,4.75 0 0 0 0.66,-1.49c0.4,-2.17 -2,-4.4 -3.57,-4.65a1.86,1.86 0 0 0 -2.17,1.13a10.37,10.37 0 0 0 -0.58,1.87a30,30 0 0 1 -2.72,6.82c-0.45,0.78 -1.8,2.44 -2.07,3.06a19.41,19.41 0 0 0 -2.25,4.93a84.13,84.13 0 0 1 -2.11,8.45c-0.22,0.74 -0.5,1.69 -0.82,2.73c-0.87,2.35 -1.71,4.71 -2.41,7.11a22.63,22.63 0 0 0 -1.25,6.38a2.89,2.89 0 0 0 3.29,2.64q4.6,-0.5 9.19,-1q5.63,-0.65 11.28,-0.79a27,27 0 0 1 3.49,0.19a2.34,2.34 0 0 1 2.37,1.78a10,10 0 0 1 -1.4,8.08c-0.43,0.67 -1,1.18 -1.88,0.4a1.49,1.49 0 0 0 -0.65,-0.24c-2.54,-0.44 -5.24,1.6 -5.13,3.87c0.14,3 4.17,5.64 7.53,4.92a11.52,11.52 0 0 0 7.5,-4.65a17.82,17.82 0 0 0 1.62,-17.67zm-21.54,-39.29a0.59,0.59 0 0 1 0.53,-0.1c0.1,0 0.21,0 0.22,0.17a0.26,0.26 0 0 1 -0.28,0.1c-0.16,0 -0.31,0.19 -0.47,0s-0.04,-0.17 0,-0.2l0,0.03zm1.68,15.44a24.83,24.83 0 0 1 7.09,0.41a8,8 0 0 1 2.92,1.24a2.74,2.74 0 0 1 1.2,1.79a2,2 0 0 1 -1.07,2.21a13.62,13.62 0 0 1 -4.73,1.23a40.8,40.8 0 0 1 -6.44,0.39a8,8 0 0 1 -3.44,-0.77a1.05,1.05 0 0 1 -0.64,-0.62c0.88,-0.06 1.73,-0.16 2.58,-0.17c2.77,0 5.52,-0.24 8.29,-0.3c1.16,0 1.66,-0.7 1.43,-1.83a1.16,1.16 0 0 1 0,-0.18c-0.28,-1.69 -0.55,-1.92 -2.26,-1.79c-3,0.23 -6,0.48 -9,0.73c-0.43,0 -0.85,0.08 -1.28,0.13s-0.39,-0.14 -0.23,-0.39a3.46,3.46 0 0 1 1.61,-1.29a11.28,11.28 0 0 1 3.97,-0.82l0,0.03zm-8.62,-0.81a7.38,7.38 0 0 1 3.84,-4.2c0.16,-0.08 0.38,-0.21 0.51,0a0.43,0.43 0 0 1 -0.18,0.57c-0.28,0.2 -0.6,0.33 -0.89,0.51a6.85,6.85 0 0 0 -3,3.94a0.7,0.7 0 0 1 -0.27,0.47c-0.38,-0.44 -0.15,-0.91 -0.01,-1.32l0,0.03zm14.52,40.32c-0.25,0 -0.43,0 -0.41,-0.27a0.69,0.69 0 0 1 0.6,-0.64c0.28,-0.05 0.5,0.06 0.47,0.32s-0.33,0.46 -0.66,0.56l0,0.03z" class="cls-2"/>
  <path id="svg_101" fill="#3e0c00" d="m230.5,159.85c-0.52,-0.89 -2.12,-0.94 -3.24,-0.39s-0.7,1.35 -0.53,2.22c0.58,3.06 0.94,2.27 -1.91,3.1c-0.37,0.11 -0.76,0.15 -1.14,0.26c-0.69,0.19 -0.93,-0.06 -0.92,-0.76a11.21,11.21 0 0 0 -0.91,-4a1.64,1.64 0 0 0 -1.74,-1.28c-0.39,0 -2.18,0 -2,1.48s0.35,2.93 0.45,4.39c0,0.41 0.2,0.95 -0.53,1.12c-2.33,0.56 -3.13,-0.13 -2.77,-2.45c0,-0.21 0,-0.43 0.07,-0.65a2,2 0 0 0 -1,-2.35a2.08,2.08 0 0 0 -2.59,0.3c-1.33,1.59 -1.68,4.68 -1.64,6.87c0,1.91 0.84,2.58 2.74,2.79c3.16,0.36 6.23,-0.3 9.34,-0.68c2,-0.25 3.95,-1.78 6.1,-0.47a1.42,1.42 0 0 0 0.77,0l2.33,-0.26a2.63,2.63 0 0 0 1,-1.15c0.87,-3.07 -0.44,-5.62 -1.88,-8.09zm-17.92,1.64c-0.26,0.31 -0.58,0.78 -0.89,0c0,-0.21 1.09,-1.2 1.34,-0.82s-0.26,0.59 -0.45,0.82zm5.68,-1.06c0.1,-0.75 0.62,-1 1.29,-1.12c0.05,0.92 -0.54,1.12 -1.29,1.12zm10,-0.36a4.09,4.09 0 0 1 -0.86,0.81c-0.28,0 -0.46,0 -0.43,-0.26a0.9,0.9 0 0 1 0.87,-0.81c0.21,-0.04 0.53,0.03 0.42,0.26z" class="cls-2"/>
  <path id="svg_102" fill="#3e0c00" d="m91.19,87.25c-0.23,-1.94 -0.53,-3.9 -1.93,-5.4c-1.9,-2 -4.41,-2.58 -7.08,-2.64c-0.37,0 -1,0.29 -1,-0.34s0.64,-0.57 1.12,-0.57c1.07,0 2.14,0.08 3.21,0c1.76,0 3.57,0 4.75,-1.68a5,5 0 0 0 0.59,-5.3c-0.71,-1.5 -2.1,-1.87 -3.67,-1.75c-3.8,0.29 -7.61,0.55 -11.42,0.84c-1.84,0.14 -2.65,0.75 -3,2.23c-0.84,3.21 0.72,5.33 4.06,5.45c0.76,0 0.83,0.23 0.57,0.89c-1,2.42 -2,4.87 -2.94,7.31c-1.48,3.71 -3,7.41 -4.42,11.14c-0.49,1.25 0,2 1.25,2.45l4.25,1.33c1.82,0.59 2.6,0.13 2.86,-1.75c0.58,-4.16 1.13,-8.32 1.69,-12.48c0,-0.3 0,-0.61 0.32,-0.81a3.06,3.06 0 0 1 4.34,1.46a11.52,11.52 0 0 1 -0.4,7.31a1,1 0 0 1 -1.44,0.65a2.08,2.08 0 0 0 -2.26,0.34a4.24,4.24 0 0 0 -1.14,4.42a3.73,3.73 0 0 0 2.88,3c2.48,0.54 4.19,-0.76 5.54,-2.61c2.33,-3.15 3.16,-6.8 3.42,-10.9c-0.09,-0.68 -0.04,-1.65 -0.15,-2.59zm-15.48,-15.32c-0.64,0.26 -1,0.93 -1.58,1.4c-0.08,0.07 -0.36,-0.1 -0.41,-0.3c-0.14,-0.53 0.2,-0.85 0.53,-1.16s0.77,-0.64 1.31,-0.41c0.14,0.02 0.22,0.16 0.15,0.47z" class="cls-2"/>
  <path id="svg_103" fill="#3e0c00" d="m83.49,58.77a4.56,4.56 0 0 0 -4.87,4.58a4.85,4.85 0 0 0 4.48,5.2c2.42,0.25 4.81,-2 4.91,-4.69a4.9,4.9 0 0 0 -4.52,-5.09zm-2.35,3.4c-0.52,0 -0.7,-0.4 -0.74,-0.88a1.59,1.59 0 0 1 1.43,-1.36a0.88,0.88 0 0 1 0.85,0.9a1.56,1.56 0 0 1 -1.54,1.34z" class="cls-2"/>
  <path id="svg_104" fill="#3e0c00" d="m113.37,65.69a2.73,2.73 0 0 0 -2.89,-2.24c-1.78,0 -3.57,0 -5.35,0.11c-0.85,0 -1.39,-0.06 -0.89,-1.1a1.88,1.88 0 0 0 0,-1.13c-0.37,-2 -2.69,-3.75 -5.19,-3.84a3.24,3.24 0 0 0 -3.49,2.8a122.36,122.36 0 0 1 -2.59,12.74a9.61,9.61 0 0 0 -0.41,3.53c0.12,1.3 1,1.74 2.14,1.09a8.62,8.62 0 0 0 2.13,-2a4.5,4.5 0 0 1 0.89,-1.23c0.61,-1 1.26,-1.93 1.83,-2.92a1.26,1.26 0 0 1 1.35,-0.73c2.72,0.19 5.45,0.37 8.18,0.5a4.16,4.16 0 0 0 4.29,-5.58zm-16.12,-5.57c-0.09,0 -0.21,-0.12 -0.23,-0.2a1.06,1.06 0 0 1 0.31,-0.95c0.3,-0.29 0.57,-0.64 1.06,-0.55a0.43,0.43 0 0 1 0.33,0.36a5.19,5.19 0 0 1 -1.5,1.34l0.03,0z" class="cls-2"/>
  <path id="svg_105" fill="#3e0c00" d="m112.79,87.01a3.23,3.23 0 0 0 -3.31,-3.23c-0.59,0 -1.19,0.05 -1.78,0c-0.23,0 -0.53,0.09 -0.66,-0.18s0.16,-0.43 0.32,-0.59a7.65,7.65 0 0 0 2.19,-5.41c0,-2 -1.41,-4.57 -3,-4.88a10.37,10.37 0 0 0 -8.61,1.87l-0.86,1.47a3.91,3.91 0 0 0 -0.36,1.74a1.92,1.92 0 0 0 2.45,2.13a7.24,7.24 0 0 1 1.67,-0.13a1.18,1.18 0 0 1 1.16,1c0.29,1 -1.27,3 -2.31,3l-4.32,0a1.74,1.74 0 0 0 -1.88,1.33a13.21,13.21 0 0 0 -0.36,5c0.13,1.38 0.91,2 2.33,2.1c0.8,0.07 1.6,0.17 2.4,0.21c0.38,0 0.59,0.12 0.59,0.53s0.07,0.84 0.06,1.26c-0.05,2.64 -1,3.53 -3.64,3.3a2.09,2.09 0 0 0 -1.92,0.86a4.56,4.56 0 0 0 1.3,6.8a10.07,10.07 0 0 0 6.45,0.73a8,8 0 0 0 6.85,-6.09a14.64,14.64 0 0 0 0.31,-5.63c-0.11,-0.77 0.08,-1 0.87,-1.13a4,4 0 0 0 3.83,-3.42a8.69,8.69 0 0 0 0.23,-2.64zm-19,13.32c-0.46,0.06 -0.63,-0.3 -0.62,-0.66a1,1 0 0 1 1,-0.92c0.42,0 0.6,0.26 0.65,0.6a1.09,1.09 0 0 1 -1.01,0.98l-0.02,0z" class="cls-2"/>
  <path id="svg_106" fill="#3e0c00" d="m114.3,103.17c-2.16,-2.31 -4.92,-1.89 -7.49,-0.79c-7.65,3.27 -15.46,3.48 -23.43,1.48a55.17,55.17 0 0 1 -13.56,-5.45c-0.73,-0.4 -1.84,-0.6 -1.86,-1.73c-0.09,-5.34 -0.87,-10.74 1.15,-15.94a3.91,3.91 0 0 0 -3.39,-5.54a17.45,17.45 0 0 0 -4.33,0.22a8,8 0 0 0 -4,1.29c-2.06,1.16 -2.34,2.65 -0.57,4.89a12.76,12.76 0 0 1 2.76,6.51c0.84,6 0.8,11.6 -5.33,15.19a3.92,3.92 0 0 0 -1.76,2.93c-0.4,3.23 1.95,6.11 5.57,6.74c3,0.53 5.44,-1.21 6.22,-4.53c0.7,-3 2.12,-3.71 4.79,-2.27c2.29,1.25 4.51,2.65 6.67,4.12a50.65,50.65 0 0 0 27.63,9.34c5.84,0.18 10,-2.42 12.22,-7.77c1.27,-3.08 1.05,-6.18 -1.29,-8.69zm-50.47,-26.82l-0.13,0a1.13,1.13 0 0 1 0.08,0.37c-2,0.59 -4.4,0.29 -6,2.18a0.49,0.49 0 0 1 -0.85,-0.17c-0.29,-0.87 0.45,-1.17 1,-1.58a17.54,17.54 0 0 1 4.53,-1c0.42,0 1,-0.31 1.22,0.15l0.15,0l0,0.05zm0.19,0c-0.11,0 -0.11,0 -0.1,0l0.11,0l0.07,0l-0.08,0zm48.09,38.58c-2.87,3 -6.43,3 -10.13,2.29c2.31,-0.39 4.72,-0.34 6.9,-1.43a9.87,9.87 0 0 0 2.57,-1.67c0.3,-0.29 0.69,-0.62 1,-0.2s-0.08,0.78 -0.34,1.06l0,-0.05zm1.68,-1.84c-0.57,0 -0.87,-0.25 -0.84,-0.73a1.29,1.29 0 0 1 1.29,-1.33a0.7,0.7 0 0 1 0.82,0.72c-0.02,0.85 -0.64,1.18 -1.27,1.39l0,-0.05z" class="cls-2"/>
  <path id="svg_107" fill="#3e0c00" d="m67.5,64.03c-1.22,-2.4 -3.46,-3.69 -5.63,-3.27a5.48,5.48 0 0 0 -4.08,5.29a7.44,7.44 0 0 0 2.27,6.14a4.74,4.74 0 0 0 7.73,-1.43a7.31,7.31 0 0 0 -0.29,-6.73zm-5.86,0.64c-0.67,0 -1,-0.21 -1,-0.7a1.16,1.16 0 0 1 1.15,-1.19a0.74,0.74 0 0 1 0.82,0.73c0.04,0.76 -0.59,0.95 -0.97,1.16z" class="cls-2"/>
  <path id="svg_108" fill="#3e0c00" d="m115.12,140a5.41,5.41 0 0 0 -1.16,-3.25a5.66,5.66 0 0 0 -4.27,-1.59c-0.22,0 -0.6,0.17 -0.62,-0.21s0.39,-0.34 0.68,-0.34c0.64,0 1.29,0 1.93,0c1.06,0 2.15,0 2.87,-1a3,3 0 0 0 0.35,-3.2a2,2 0 0 0 -2.21,-1.05l-6.89,0.5c-1.11,0.08 -1.59,0.45 -1.83,1.35c-0.51,1.93 0.43,3.21 2.45,3.28c0.46,0 0.5,0.14 0.34,0.54c-0.6,1.46 -1.18,2.93 -1.77,4.4c-0.89,2.24 -1.8,4.48 -2.67,6.72c-0.29,0.76 0,1.23 0.76,1.48l2.56,0.8c1.1,0.35 1.57,0.08 1.73,-1.05q0.51,-3.76 1,-7.53c0,-0.18 0,-0.36 0.2,-0.49a1.85,1.85 0 0 1 2.62,0.89a7,7 0 0 1 -0.25,4.4a0.57,0.57 0 0 1 -0.86,0.39a1.27,1.27 0 0 0 -1.37,0.21a2.53,2.53 0 0 0 -0.68,2.66a2.22,2.22 0 0 0 1.73,1.78a3.15,3.15 0 0 0 3.34,-1.57a11.93,11.93 0 0 0 2.07,-6.57c-0.01,-0.4 0.02,-0.98 -0.05,-1.55zm-9.33,-9.25c-0.38,0.15 -0.61,0.56 -1,0.83c0,0 -0.22,-0.05 -0.25,-0.17c-0.08,-0.32 0.12,-0.51 0.32,-0.7s0.46,-0.39 0.79,-0.25c0.14,0.03 0.19,0.12 0.14,0.29z" class="cls-2"/>
  <path id="svg_109" fill="#3e0c00" d="m110.48,122.83a2.75,2.75 0 0 0 -2.93,2.76a2.84,2.84 0 1 0 5.66,0.31a3,3 0 0 0 -2.73,-3.07zm-1.41,2c-0.32,0 -0.43,-0.24 -0.45,-0.53a1,1 0 0 1 0.86,-0.82a0.53,0.53 0 0 1 0.51,0.55a0.94,0.94 0 0 1 -0.92,0.9l0,-0.1z" class="cls-2"/>
  <path id="svg_110" fill="#3e0c00" d="m128.48,127a1.66,1.66 0 0 0 -1.74,-1.35c-1.08,0 -2.15,0 -3.23,0.07c-0.51,0 -0.83,0 -0.54,-0.66a1.12,1.12 0 0 0 0,-0.68a3.29,3.29 0 0 0 -3.13,-2.32a2,2 0 0 0 -2.1,1.69a77.42,77.42 0 0 1 -1.57,7.68a5.93,5.93 0 0 0 -0.25,2.13c0.07,0.78 0.6,1.05 1.29,0.66a5.26,5.26 0 0 0 1.28,-1.21a3.06,3.06 0 0 1 0.54,-0.74c0.37,-0.59 0.76,-1.16 1.1,-1.76a0.77,0.77 0 0 1 0.82,-0.44c1.64,0.12 3.29,0.22 4.93,0.3a2.51,2.51 0 0 0 2.6,-3.37zm-9.72,-3.35a0.24,0.24 0 0 1 -0.14,-0.12a0.66,0.66 0 0 1 0.19,-0.58c0.18,-0.17 0.34,-0.38 0.64,-0.33a0.27,0.27 0 0 1 0.2,0.22a3.11,3.11 0 0 1 -0.89,0.81z" class="cls-2"/>
  <path id="svg_111" fill="#3e0c00" d="m128.15,139.86a2,2 0 0 0 -2,-2c-0.35,0 -0.71,0 -1.07,0c-0.14,0 -0.32,0.05 -0.4,-0.11s0.1,-0.26 0.19,-0.36a4.65,4.65 0 0 0 1.33,-3.26c0,-1.2 -0.86,-2.75 -1.84,-2.94a6.24,6.24 0 0 0 -5.19,1.12l-0.52,0.89a2.39,2.39 0 0 0 -0.22,1.05a1.16,1.16 0 0 0 1.51,1.27a4.77,4.77 0 0 1 1,-0.08a0.73,0.73 0 0 1 0.71,0.62a2,2 0 0 1 -1.4,1.82l-2.6,0a1,1 0 0 0 -1.13,0.8a7.9,7.9 0 0 0 -0.22,3c0.08,0.83 0.55,1.19 1.41,1.26c0.48,0 1,0.11 1.44,0.13c0.23,0 0.36,0.07 0.36,0.32s0,0.51 0,0.76c0,1.59 -0.63,2.13 -2.2,2a1.25,1.25 0 0 0 -1.16,0.52a2.75,2.75 0 0 0 0.79,4.1a6,6 0 0 0 3.88,0.44a4.84,4.84 0 0 0 4.14,-3.68a8.8,8.8 0 0 0 0.18,-3.39c-0.06,-0.46 0.05,-0.63 0.53,-0.68a2.44,2.44 0 0 0 2.31,-2.06a5.22,5.22 0 0 0 0.17,-1.54zm-11.44,8c-0.28,0 -0.38,-0.18 -0.38,-0.4a0.57,0.57 0 0 1 0.57,-0.55c0.26,0 0.36,0.15 0.39,0.36a0.65,0.65 0 0 1 -0.58,0.66l0,-0.07z" class="cls-2"/>
  <path id="svg_112" fill="#3e0c00" d="m129.06,149.6c-1.3,-1.39 -3,-1.14 -4.52,-0.47a21.61,21.61 0 0 1 -14.12,0.89a33.34,33.34 0 0 1 -8.18,-3.28c-0.44,-0.25 -1.11,-0.37 -1.12,-1.05c0,-3.22 -0.53,-6.48 0.69,-9.61a2.35,2.35 0 0 0 -2,-3.34a10.35,10.35 0 0 0 -2.61,0.13a4.91,4.91 0 0 0 -2.38,0.78c-1.24,0.7 -1.41,1.6 -0.35,2.95a7.71,7.71 0 0 1 1.67,3.92c0.51,3.65 0.48,7 -3.22,9.16a2.39,2.39 0 0 0 -1.06,1.77a3.77,3.77 0 0 0 3.36,4.06a3.18,3.18 0 0 0 3.75,-2.73c0.42,-1.79 1.28,-2.24 2.89,-1.37a46.28,46.28 0 0 1 4,2.49a30.54,30.54 0 0 0 16.64,5.63a7.1,7.1 0 0 0 7.37,-4.69a4.69,4.69 0 0 0 -0.81,-5.24zm-30.43,-16.17l-0.08,0a1,1 0 0 1 0,0.22c-1.23,0.36 -2.66,0.18 -3.61,1.32a0.3,0.3 0 0 1 -0.51,-0.11c-0.18,-0.52 0.27,-0.7 0.59,-0.95a10.65,10.65 0 0 1 2.73,-0.59c0.26,0 0.59,-0.19 0.74,0.09l0.14,0.02zm0.11,0c-0.06,0 -0.06,0 -0.06,0l0.06,0zm29,23.26c-1.73,1.84 -3.88,1.79 -6.11,1.39a14.41,14.41 0 0 0 4.16,-0.86a6,6 0 0 0 1.55,-1c0.18,-0.17 0.42,-0.37 0.63,-0.11s-0.07,0.44 -0.23,0.61l0,-0.03zm1,-1.1c-0.34,0 -0.52,-0.16 -0.5,-0.44a0.78,0.78 0 0 1 0.77,-0.81a0.43,0.43 0 0 1 0.5,0.44c-0.01,0.51 -0.38,0.71 -0.76,0.84l-0.01,-0.03z" class="cls-2"/>
  <path id="svg_113" fill="#3e0c00" d="m100.84,126a3.26,3.26 0 0 0 -3.39,-2a3.32,3.32 0 0 0 -2.47,3.19a4.49,4.49 0 0 0 1.39,3.74a2.85,2.85 0 0 0 4.66,-0.86a4.39,4.39 0 0 0 -0.19,-4.07zm-3.53,0.39c-0.41,0 -0.6,-0.12 -0.59,-0.42a0.71,0.71 0 0 1 0.69,-0.72a0.45,0.45 0 0 1 0.5,0.44c0.01,0.46 -0.37,0.57 -0.6,0.7z" class="cls-2"/>
  <path id="svg_114" fill="#e60012" d="m131.19,40.82c-7.8,0 -15.13,-2 -20.64,-5.72c-5.86,-3.9 -9.08,-9.08 -9.08,-14.73s3.22,-10.82 9,-14.66c5.58,-3.7 12.91,-5.71 20.71,-5.71s15.13,2 20.65,5.71c5.78,3.84 9,9.08 9,14.66s-3.23,10.83 -9,14.66c-5.58,3.77 -12.91,5.79 -20.64,5.79zm0,-40.35a37.42,37.42 0 0 0 -20.44,5.65c-5.72,3.76 -8.81,8.81 -8.81,14.25s3.09,10.56 8.81,14.33c5.44,3.63 12.71,5.65 20.44,5.65a37.5,37.5 0 0 0 20.44,-5.65c5.65,-3.77 8.74,-8.77 8.74,-14.33s-3.09,-10.44 -8.8,-14.25c-5.45,-3.64 -12.71,-5.65 -20.38,-5.65z" class="cls-5"/>
  <path id="svg_116" fill="#fff" d="m129.98,36.45c0,-0.41 0.2,-0.68 0.4,-0.68s0.41,0.34 0.41,0.74s-0.2,0.68 -0.41,0.68s-0.4,-0.34 -0.4,-0.74z" class="cls-1"/>
  <path id="svg_117" fill="#fff" d="m128.77,36.38c0,-0.41 0.2,-0.67 0.4,-0.67s0.41,0.33 0.34,0.74s-0.2,0.67 -0.4,0.67s-0.34,-0.34 -0.34,-0.74z" class="cls-1"/>
  <path id="svg_118" fill="#fff" d="m127.56,36.31c0.07,-0.4 0.27,-0.67 0.47,-0.67s0.34,0.33 0.34,0.74s-0.21,0.67 -0.47,0.67s-0.34,-0.4 -0.34,-0.74z" class="cls-1"/>
  <path id="svg_119" fill="#fff" d="m126.42,36.18c0.06,-0.41 0.26,-0.68 0.47,-0.68s0.33,0.34 0.33,0.74s-0.27,0.68 -0.47,0.68s-0.38,-0.34 -0.33,-0.74z" class="cls-1"/>
  <path id="svg_120" fill="#fff" d="m125.21,35.93c0.06,-0.4 0.26,-0.67 0.47,-0.67s0.33,0.34 0.27,0.74s-0.27,0.67 -0.48,0.67s-0.33,-0.29 -0.26,-0.74z" class="cls-1"/>
  <path id="svg_121" fill="#fff" d="m124.06,35.77c0.07,-0.4 0.27,-0.67 0.54,-0.6s0.34,0.4 0.27,0.74s-0.27,0.67 -0.54,0.6s-0.34,-0.33 -0.27,-0.74z" class="cls-1"/>
  <path id="svg_122" fill="#fff" d="m122.85,35.57c0.07,-0.4 0.34,-0.67 0.54,-0.6s0.34,0.4 0.27,0.74s-0.34,0.67 -0.54,0.6s-0.34,-0.38 -0.27,-0.74z" class="cls-1"/>
  <path id="svg_123" fill="#fff" d="m121.71,35.3c0.07,-0.4 0.33,-0.67 0.54,-0.6s0.33,0.4 0.2,0.8s-0.34,0.68 -0.54,0.61s-0.27,-0.47 -0.2,-0.81z" class="cls-1"/>
  <path id="svg_124" fill="#fff" d="m120.57,34.93c0.13,-0.41 0.33,-0.61 0.6,-0.54s0.27,0.4 0.2,0.8s-0.33,0.61 -0.6,0.54s-0.34,-0.36 -0.2,-0.8z" class="cls-1"/>
  <path id="svg_125" fill="#fff" d="m119.42,34.63c0.14,-0.34 0.41,-0.61 0.61,-0.54s0.27,0.41 0.13,0.81s-0.4,0.6 -0.6,0.54s-0.27,-0.51 -0.14,-0.81z" class="cls-1"/>
  <path id="svg_126" fill="#fff" d="m118.37,34.23c0.13,-0.34 0.4,-0.61 0.6,-0.54s0.27,0.4 0.14,0.81s-0.41,0.6 -0.61,0.53s-0.36,-0.47 -0.13,-0.8z" class="cls-1"/>
  <path id="svg_127" fill="#fff" d="m117.2,33.76c0.14,-0.34 0.41,-0.61 0.61,-0.48s0.27,0.41 0.13,0.81s-0.4,0.61 -0.6,0.54s-0.27,-0.47 -0.14,-0.87z" class="cls-1"/>
  <path id="svg_129" fill="#fff" d="m115.05,32.75c0.2,-0.34 0.47,-0.54 0.67,-0.47s0.21,0.47 0.07,0.8s-0.47,0.54 -0.67,0.47s-0.27,-0.47 -0.07,-0.8z" class="cls-1"/>
  <path id="svg_130" fill="#fff" d="m114.04,32.14c0.2,-0.33 0.54,-0.54 0.67,-0.4s0.21,0.47 0,0.81s-0.47,0.53 -0.67,0.4s-0.2,-0.47 0,-0.81z" class="cls-1"/>
  <path id="svg_131" fill="#fff" d="m113.03,31.54a0.74,0.74 0 0 1 0.74,-0.41c0.2,0.14 0.14,0.47 -0.06,0.81a0.71,0.71 0 0 1 -0.74,0.4c-0.21,-0.13 -0.14,-0.47 0.06,-0.8z" class="cls-1"/>
  <path id="svg_132" fill="#fff" d="m112.02,30.86c0.21,-0.33 0.54,-0.47 0.74,-0.33s0.14,0.47 -0.06,0.8s-0.54,0.48 -0.74,0.34s-0.14,-0.54 0.06,-0.81z" class="cls-1"/>
  <path id="svg_133" fill="#fff" d="m111.08,30.12c0.27,-0.26 0.61,-0.4 0.74,-0.26s0.14,0.47 -0.13,0.8s-0.61,0.47 -0.74,0.27s-0.07,-0.54 0.13,-0.81z" class="cls-1"/>
  <path id="svg_134" fill="#fff" d="m110.21,29.32c0.27,-0.27 0.6,-0.41 0.74,-0.27s0.07,0.47 -0.2,0.81s-0.54,0.4 -0.74,0.26a0.66,0.66 0 0 1 0.2,-0.8z" class="cls-1"/>
  <path id="svg_135" fill="#fff" d="m109.37,28.44a0.68,0.68 0 0 1 0.81,-0.2c0.13,0.14 0.07,0.47 -0.2,0.74s-0.61,0.4 -0.81,0.2s-0.04,-0.47 0.2,-0.74z" class="cls-1"/>
  <path id="svg_136" fill="#fff" d="m108.59,27.57c0.34,-0.27 0.68,-0.27 0.81,-0.14s0,0.47 -0.27,0.74s-0.67,0.34 -0.8,0.14s0.04,-0.54 0.26,-0.74z" class="cls-1"/>
  <path id="svg_137" fill="#fff" d="m107.92,26.56c0.34,-0.2 0.67,-0.27 0.81,-0.07s-0.07,0.47 -0.34,0.74s-0.67,0.27 -0.8,0.07s0,-0.54 0.33,-0.74z" class="cls-1"/>
  <path id="svg_138" fill="#fff" d="m107.37,25.55c0.33,-0.2 0.67,-0.2 0.8,0s-0.06,0.47 -0.4,0.67s-0.67,0.21 -0.81,0s0.02,-0.47 0.41,-0.67z" class="cls-1"/>
  <path id="svg_139" fill="#fff" d="m106.85,24.48c0.33,-0.14 0.74,-0.14 0.8,0.06s-0.13,0.47 -0.47,0.67s-0.74,0.14 -0.8,-0.06s0.06,-0.54 0.47,-0.67z" class="cls-1"/>
  <path id="svg_140" fill="#fff" d="m106.44,23.33a0.72,0.72 0 0 1 0.81,0.14c0.07,0.2 -0.2,0.47 -0.54,0.6s-0.74,0.07 -0.81,-0.13s0.21,-0.47 0.54,-0.61z" class="cls-1"/>
  <path id="svg_141" fill="#fff" d="m106.17,22.19c0.41,-0.07 0.74,0.07 0.74,0.27s-0.2,0.4 -0.6,0.54s-0.74,0 -0.74,-0.27s0.2,-0.47 0.6,-0.54z" class="cls-1"/>
  <path id="svg_142" fill="#fff" d="m106.04,20.98c0.4,0 0.67,0.13 0.74,0.33s-0.27,0.41 -0.67,0.48s-0.74,-0.07 -0.74,-0.34s0.33,-0.4 0.67,-0.47z" class="cls-1"/>
  <path id="svg_143" fill="#fff" d="m106.04,19.84c0.4,0 0.67,0.2 0.67,0.4s-0.33,0.4 -0.67,0.4s-0.74,-0.2 -0.67,-0.4s0.27,-0.47 0.67,-0.4z" class="cls-1"/>
  <path id="svg_144" fill="#fff" d="m106.17,18.62c0.41,0.07 0.68,0.27 0.68,0.48s-0.34,0.33 -0.74,0.33s-0.68,-0.27 -0.68,-0.47s0.34,-0.4 0.74,-0.34z" class="cls-1"/>
  <path id="svg_145" fill="#fff" d="m106.44,17.48c0.41,0.14 0.61,0.34 0.61,0.54s-0.41,0.27 -0.74,0.2s-0.67,-0.34 -0.61,-0.54s0.41,-0.33 0.74,-0.2z" class="cls-1"/>
  <path id="svg_146" fill="#fff" d="m106.85,16.34c0.33,0.13 0.6,0.4 0.53,0.6s-0.4,0.27 -0.8,0.14s-0.61,-0.41 -0.54,-0.61s0.4,-0.27 0.81,-0.13z" class="cls-1"/>
  <path id="svg_147" fill="#fff" d="m107.37,15.26c0.33,0.2 0.54,0.47 0.47,0.67s-0.41,0.21 -0.81,0.07s-0.54,-0.47 -0.47,-0.67a0.6,0.6 0 0 1 0.81,-0.07z" class="cls-1"/>
  <path id="svg_148" fill="#fff" d="m107.92,14.25c0.34,0.21 0.47,0.54 0.41,0.68s-0.47,0.13 -0.81,0s-0.54,-0.54 -0.4,-0.68s0.47,-0.27 0.8,0z" class="cls-1"/>
  <path id="svg_149" fill="#fff" d="m108.59,13.24c0.34,0.27 0.48,0.54 0.34,0.74s-0.47,0.14 -0.81,-0.06s-0.47,-0.54 -0.33,-0.74s0.58,-0.14 0.8,0.06z" class="cls-1"/>
  <path id="svg_150" fill="#fff" d="m109.37,12.37c0.27,0.27 0.41,0.61 0.27,0.74s-0.47,0.07 -0.81,-0.13s-0.4,-0.61 -0.27,-0.74s0.57,-0.14 0.81,0.13z" class="cls-1"/>
  <path id="svg_151" fill="#fff" d="m110.21,11.5a0.66,0.66 0 0 1 0.2,0.8c-0.13,0.14 -0.47,0.07 -0.81,-0.2s-0.4,-0.6 -0.2,-0.81s0.54,-0.06 0.81,0.21z" class="cls-1"/>
  <path id="svg_154" fill="#fff" d="m113.03,9.28c0.21,0.33 0.27,0.67 0.07,0.8s-0.47,0 -0.74,-0.33s-0.27,-0.67 -0.07,-0.81s0.54,-0.01 0.74,0.34z" class="cls-1"/>
  <path id="svg_155" fill="#fff" d="m114.04,8.67c0.2,0.34 0.2,0.67 0,0.81s-0.47,-0.07 -0.67,-0.4a0.74,0.74 0 0 1 -0.07,-0.81c0.2,-0.14 0.54,0.07 0.74,0.4z" class="cls-1"/>
  <path id="svg_156" fill="#fff" d="m115.05,8.07c0.2,0.33 0.2,0.67 0,0.8s-0.47,-0.06 -0.67,-0.4s-0.2,-0.74 0,-0.81s0.47,0.07 0.67,0.41z" class="cls-1"/>
  <path id="svg_157" fill="#fff" d="m116.13,7.53c0.13,0.33 0.13,0.74 -0.07,0.81s-0.47,-0.14 -0.67,-0.48s-0.14,-0.73 0.06,-0.8s0.54,0.13 0.68,0.47z" class="cls-1"/>
  <path id="svg_158" fill="#fff" d="m117.2,7.06c0.14,0.33 0.14,0.74 -0.06,0.8s-0.48,-0.13 -0.68,-0.47s-0.13,-0.74 0.07,-0.8s0.54,0.06 0.67,0.47z" class="cls-1"/>
  <path id="svg_159" fill="#fff" d="m118.37,6.59c0.13,0.33 0.06,0.74 -0.14,0.8s-0.47,-0.13 -0.6,-0.53s-0.07,-0.74 0.13,-0.81s0.45,0.2 0.61,0.54z" class="cls-1"/>
  <path id="svg_160" fill="#fff" d="m119.42,6.18c0.14,0.34 0.07,0.74 -0.13,0.81s-0.47,-0.13 -0.61,-0.54s-0.07,-0.74 0.14,-0.8s0.47,0.2 0.6,0.53z" class="cls-1"/>
  <path id="svg_161" fill="#fff" d="m120.57,5.85c0.13,0.4 0,0.74 -0.21,0.8s-0.47,-0.2 -0.6,-0.53s-0.07,-0.74 0.2,-0.81s0.54,0.13 0.61,0.54z" class="cls-1"/>
  <path id="svg_162" fill="#fff" d="m121.71,5.51c0.07,0.4 0,0.74 -0.2,0.81s-0.47,-0.2 -0.54,-0.61s0,-0.74 0.2,-0.8a0.65,0.65 0 0 1 0.54,0.6z" class="cls-1"/>
  <path id="svg_163" fill="#fff" d="m122.85,5.24c0.07,0.41 0,0.74 -0.2,0.81s-0.47,-0.2 -0.54,-0.61s0,-0.74 0.2,-0.8s0.47,0.2 0.54,0.6z" class="cls-1"/>
  <path id="svg_164" fill="#fff" d="m124.06,4.93c0.07,0.41 -0.07,0.74 -0.27,0.74s-0.47,-0.2 -0.53,-0.6s0,-0.74 0.26,-0.74s0.47,0.31 0.54,0.6z" class="cls-1"/>
  <path id="svg_165" fill="#fff" d="m125.21,4.77c0.06,0.4 -0.07,0.74 -0.27,0.74s-0.47,-0.27 -0.54,-0.6s0.07,-0.74 0.27,-0.74s0.47,0.27 0.54,0.6z" class="cls-1"/>
  <path id="svg_166" fill="#fff" d="m126.42,4.64c0,0.4 -0.14,0.74 -0.34,0.74s-0.4,-0.27 -0.47,-0.68a0.6,0.6 0 0 1 0.34,-0.74c0.2,-0.03 0.42,0.27 0.47,0.68z" class="cls-1"/>
  <path id="svg_167" fill="#fff" d="m127.56,4.5c0.07,0.41 -0.14,0.74 -0.34,0.74s-0.4,-0.27 -0.47,-0.67s0.14,-0.74 0.34,-0.74s0.47,0.27 0.47,0.67z" class="cls-1"/>
  <path id="svg_168" fill="#fff" d="m128.77,4.44c0,0.4 -0.13,0.73 -0.34,0.73s-0.4,-0.26 -0.47,-0.67s0.14,-0.74 0.34,-0.74s0.47,0.27 0.47,0.68z" class="cls-1"/>
  <path id="svg_169" fill="#fff" d="m129.98,4.37c0,0.4 -0.13,0.74 -0.34,0.74s-0.4,-0.27 -0.4,-0.67s0.13,-0.74 0.34,-0.74s0.4,0.23 0.4,0.67z" class="cls-1"/>
  <path id="svg_170" fill="#fff" d="m131.19,4.37a0.75,0.75 0 0 1 -0.4,0.74c-0.2,0 -0.41,-0.34 -0.41,-0.67s0.14,-0.68 0.41,-0.74s0.4,0.23 0.4,0.67z" class="cls-1"/>
  <path id="svg_171" fill="#fff" d="m132.37,4.37c0,0.4 -0.2,0.67 -0.4,0.67s-0.4,-0.34 -0.4,-0.74s0.2,-0.67 0.4,-0.67s0.4,0.3 0.4,0.74z" class="cls-1"/>
  <path id="svg_172" fill="#fff" d="m133.54,4.44c0,0.4 -0.2,0.67 -0.4,0.67s-0.4,-0.34 -0.34,-0.74s0.21,-0.67 0.41,-0.67s0.33,0.33 0.33,0.74z" class="cls-1"/>
  <path id="svg_173" fill="#fff" d="m134.75,4.5c-0.06,0.41 -0.26,0.67 -0.47,0.67s-0.33,-0.33 -0.33,-0.73s0.2,-0.68 0.47,-0.68s0.33,0.34 0.33,0.74z" class="cls-1"/>
  <path id="svg_174" fill="#fff" d="m135.9,4.64c-0.07,0.4 -0.27,0.67 -0.47,0.67s-0.34,-0.34 -0.34,-0.74s0.27,-0.67 0.47,-0.67s0.41,0.33 0.34,0.74z" class="cls-1"/>
  <path id="svg_175" fill="#fff" d="m137.11,4.77c-0.07,0.4 -0.27,0.67 -0.47,0.67s-0.34,-0.33 -0.27,-0.74s0.27,-0.67 0.47,-0.67a0.66,0.66 0 0 1 0.27,0.74z" class="cls-1"/>
  <path id="svg_176" fill="#fff" d="m138.25,4.93c-0.07,0.41 -0.27,0.68 -0.54,0.61s-0.33,-0.41 -0.27,-0.74s0.27,-0.67 0.54,-0.61a0.66,0.66 0 0 1 0.27,0.74z" class="cls-1"/>
  <path id="svg_177" fill="#fff" d="m139.46,5.24c-0.07,0.41 -0.33,0.67 -0.54,0.61a0.65,0.65 0 0 1 -0.26,-0.74c0.06,-0.34 0.33,-0.67 0.53,-0.61s0.34,0.34 0.27,0.74z" class="cls-1"/>
  <path id="svg_178" fill="#fff" d="m140.61,5.51c-0.07,0.4 -0.34,0.67 -0.54,0.61s-0.34,-0.41 -0.27,-0.81s0.33,-0.67 0.54,-0.61s0.33,0.41 0.27,0.81z" class="cls-1"/>
  <path id="svg_179" fill="#fff" d="m141.75,5.85c-0.14,0.4 -0.34,0.6 -0.61,0.54s-0.27,-0.41 -0.2,-0.81s0.34,-0.61 0.61,-0.54s0.33,0.4 0.2,0.81z" class="cls-1"/>
  <path id="svg_180" fill="#fff" d="m142.89,6.18c-0.13,0.34 -0.4,0.61 -0.6,0.54s-0.27,-0.4 -0.14,-0.81s0.34,-0.6 0.54,-0.53s0.34,0.47 0.2,0.8z" class="cls-1"/>
  <path id="svg_181" fill="#fff" d="m143.97,6.59c-0.14,0.33 -0.41,0.6 -0.61,0.54s-0.27,-0.41 -0.13,-0.81s0.4,-0.61 0.6,-0.54s0.34,0.47 0.14,0.81z" class="cls-1"/>
  <path id="svg_182" fill="#fff" d="m145.11,7.06c-0.13,0.33 -0.4,0.6 -0.6,0.47s-0.27,-0.4 -0.14,-0.81s0.4,-0.6 0.61,-0.54s0.27,0.47 0.13,0.88z" class="cls-1"/>
  <path id="svg_183" fill="#fff" d="m146.19,7.53c-0.2,0.33 -0.47,0.54 -0.68,0.47s-0.2,-0.47 -0.06,-0.81s0.47,-0.54 0.67,-0.47s0.25,0.47 0.07,0.81z" class="cls-1"/>
  <path id="svg_184" fill="#fff" d="m147.26,8.07c-0.2,0.33 -0.47,0.53 -0.67,0.47s-0.2,-0.47 -0.07,-0.81s0.47,-0.54 0.68,-0.47s0.26,0.47 0.06,0.81z" class="cls-1"/>
  <path id="svg_185" fill="#fff" d="m148.27,8.67c-0.2,0.34 -0.54,0.54 -0.67,0.41s-0.2,-0.48 0,-0.81s0.47,-0.54 0.67,-0.41s0.2,0.48 0,0.81z" class="cls-1"/>
  <path id="svg_186" fill="#fff" d="m149.28,9.28a0.72,0.72 0 0 1 -0.74,0.4c-0.2,-0.13 -0.13,-0.47 0.07,-0.81a0.72,0.72 0 0 1 0.74,-0.4c0.2,0.13 0.2,0.46 -0.07,0.81z" class="cls-1"/>
  <path id="svg_187" fill="#fff" d="m150.29,9.93c-0.2,0.34 -0.54,0.47 -0.74,0.34s-0.14,-0.48 0.07,-0.81s0.53,-0.47 0.74,-0.34s0.13,0.49 -0.07,0.81z" class="cls-1"/>
  <path id="svg_188" fill="#fff" d="m151.23,10.69c-0.27,0.27 -0.6,0.4 -0.74,0.27s-0.13,-0.47 0.14,-0.81s0.6,-0.47 0.74,-0.27s0.06,0.54 -0.14,0.81z" class="cls-1"/>
  <path id="svg_189" fill="#fff" d="m152.1,11.5c-0.26,0.27 -0.6,0.4 -0.73,0.27s-0.07,-0.48 0.2,-0.81s0.6,-0.41 0.74,-0.27s0.06,0.54 -0.21,0.81z" class="cls-1"/>
  <path id="svg_190" fill="#fff" d="m152.91,12.37a0.67,0.67 0 0 1 -0.81,0.2c-0.13,-0.13 -0.06,-0.47 0.21,-0.74s0.6,-0.4 0.8,-0.2s0.14,0.47 -0.2,0.74z" class="cls-1"/>
  <path id="svg_191" fill="#fff" d="m153.72,13.24c-0.34,0.27 -0.67,0.27 -0.81,0.14s0,-0.47 0.27,-0.74s0.67,-0.34 0.81,-0.14a0.61,0.61 0 0 1 -0.27,0.74z" class="cls-1"/>
  <path id="svg_192" fill="#fff" d="m154.37,14.25c-0.34,0.21 -0.67,0.27 -0.81,0.07s0.07,-0.47 0.34,-0.74s0.67,-0.27 0.81,-0.07s0.02,0.47 -0.34,0.74z" class="cls-1"/>
  <path id="svg_193" fill="#fff" d="m155,15.26c-0.34,0.2 -0.68,0.2 -0.81,0s0.07,-0.47 0.4,-0.67s0.68,-0.2 0.81,0s-0.03,0.47 -0.4,0.67z" class="cls-1"/>
  <path id="svg_194" fill="#fff" d="m155.47,16.34c-0.34,0.13 -0.74,0.13 -0.81,-0.07s0.13,-0.47 0.47,-0.67s0.74,-0.14 0.81,0.07s-0.07,0.53 -0.47,0.67z" class="cls-1"/>
  <path id="svg_195" fill="#fff" d="m155.87,17.48a0.72,0.72 0 0 1 -0.81,-0.13c-0.06,-0.2 0.21,-0.47 0.54,-0.61s0.74,-0.07 0.81,0.14s-0.2,0.47 -0.54,0.6z" class="cls-1"/>
  <path id="svg_196" fill="#fff" d="m156.14,18.62c-0.4,0.07 -0.74,-0.06 -0.74,-0.26s0.2,-0.41 0.61,-0.54s0.73,0 0.73,0.27s-0.2,0.47 -0.6,0.53z" class="cls-1"/>
  <path id="svg_197" fill="#fff" d="m156.27,19.84c-0.4,0 -0.67,-0.14 -0.74,-0.34s0.27,-0.4 0.68,-0.47s0.74,0.07 0.74,0.33s-0.34,0.41 -0.68,0.48z" class="cls-1"/>
  <path id="svg_198" fill="#fff" d="m156.27,20.98c-0.4,0 -0.67,-0.2 -0.67,-0.41s0.34,-0.4 0.67,-0.4s0.74,0.2 0.68,0.4s-0.27,0.48 -0.68,0.41z" class="cls-1"/>
  <path id="svg_199" fill="#fff" d="m156.14,22.19c-0.4,-0.07 -0.67,-0.27 -0.67,-0.47s0.33,-0.34 0.74,-0.34s0.67,0.27 0.67,0.47s-0.34,0.41 -0.74,0.34z" class="cls-1"/>
  <path id="svg_200" fill="#fff" d="m155.87,23.33c-0.4,-0.13 -0.6,-0.33 -0.6,-0.54s0.4,-0.27 0.74,-0.2s0.67,0.34 0.6,0.54s-0.4,0.34 -0.74,0.2z" class="cls-1"/>
  <path id="svg_201" fill="#fff" d="m155.47,24.48c-0.34,-0.14 -0.61,-0.41 -0.54,-0.61s0.4,-0.27 0.81,-0.13s0.6,0.4 0.53,0.6s-0.4,0.27 -0.8,0.14z" class="cls-1"/>
  <path id="svg_202" fill="#fff" d="m155,25.55c-0.34,-0.2 -0.54,-0.47 -0.47,-0.67s0.4,-0.2 0.8,-0.07s0.54,0.47 0.47,0.67a0.58,0.58 0 0 1 -0.8,0.07z" class="cls-1"/>
  <path id="svg_203" fill="#fff" d="m154.37,26.56c-0.34,-0.2 -0.47,-0.54 -0.4,-0.67s0.47,-0.14 0.8,0s0.54,0.54 0.41,0.67s-0.45,0.2 -0.81,0z" class="cls-1"/>
  <path id="svg_204" fill="#fff" d="m153.72,27.57c-0.34,-0.27 -0.47,-0.54 -0.34,-0.74s0.47,-0.14 0.81,0.07s0.47,0.53 0.34,0.74s-0.54,0.13 -0.81,-0.07z" class="cls-1"/>
  <path id="svg_205" fill="#fff" d="m152.91,28.44c-0.27,-0.27 -0.4,-0.6 -0.27,-0.74s0.47,-0.06 0.81,0.14s0.4,0.6 0.27,0.74s-0.54,0.13 -0.81,-0.14z" class="cls-1"/>
  <path id="svg_206" fill="#fff" d="m152.1,29.32a0.7,0.7 0 0 1 -0.2,-0.81c0.14,-0.13 0.47,-0.07 0.81,0.2s0.4,0.61 0.2,0.81s-0.54,0.07 -0.81,-0.2z" class="cls-1"/>
  <path id="svg_207" fill="#fff" d="m151.23,30.12c-0.27,-0.26 -0.34,-0.67 -0.13,-0.8s0.47,0 0.74,0.27s0.33,0.67 0.13,0.8s-0.54,0 -0.74,-0.27z" class="cls-1"/>
  <path id="svg_208" fill="#fff" d="m150.29,30.86c-0.2,-0.33 -0.27,-0.67 -0.14,-0.8s0.48,0 0.74,0.33a0.66,0.66 0 0 1 0.14,0.81c-0.2,0.13 -0.54,-0.07 -0.74,-0.34z" class="cls-1"/>
  <path id="svg_209" fill="#fff" d="m149.28,31.54c-0.2,-0.34 -0.27,-0.68 -0.07,-0.81s0.47,0 0.74,0.34s0.27,0.67 0.07,0.8s-0.54,0 -0.74,-0.33z" class="cls-1"/>
  <path id="svg_210" fill="#fff" d="m148.27,32.14c-0.2,-0.33 -0.2,-0.67 0,-0.81s0.47,0.07 0.67,0.41a0.7,0.7 0 0 1 0.07,0.81c-0.2,0.13 -0.54,-0.07 -0.74,-0.41z" class="cls-1"/>
  <path id="svg_211" fill="#fff" d="m147.26,32.75c-0.2,-0.34 -0.2,-0.68 0,-0.81s0.47,0.07 0.68,0.4s0.2,0.74 0,0.81s-0.48,-0.07 -0.68,-0.4z" class="cls-1"/>
  <path id="svg_212" fill="#fff" d="m146.19,33.28c-0.14,-0.33 -0.14,-0.73 0.06,-0.8s0.47,0.13 0.68,0.47s0.13,0.74 -0.07,0.81s-0.49,-0.14 -0.67,-0.48z" class="cls-1"/>
  <path id="svg_213" fill="#fff" d="m145.11,33.76c-0.13,-0.34 -0.13,-0.74 0.07,-0.81s0.47,0.13 0.67,0.47s0.14,0.74 -0.07,0.81a0.6,0.6 0 0 1 -0.67,-0.47z" class="cls-1"/>
  <path id="svg_214" fill="#fff" d="m143.97,34.23c-0.14,-0.34 -0.07,-0.74 0.13,-0.81s0.47,0.13 0.61,0.54s0.06,0.74 -0.14,0.8s-0.47,-0.2 -0.6,-0.53z" class="cls-1"/>
  <path id="svg_215" fill="#fff" d="m142.89,34.63c-0.13,-0.34 -0.07,-0.74 0.14,-0.81s0.47,0.14 0.6,0.54s0.07,0.74 -0.13,0.81s-0.47,-0.24 -0.61,-0.54z" class="cls-1"/>
  <path id="svg_216" fill="#fff" d="m141.75,34.93c-0.14,-0.41 0,-0.74 0.2,-0.81s0.47,0.2 0.61,0.54s0.06,0.74 -0.21,0.8s-0.47,-0.09 -0.6,-0.53z" class="cls-1"/>
  <path id="svg_217" fill="#fff" d="m140.61,35.3c-0.07,-0.4 0,-0.74 0.2,-0.8s0.47,0.2 0.53,0.6s0,0.74 -0.2,0.81s-0.47,-0.27 -0.53,-0.61z" class="cls-1"/>
  <path id="svg_218" fill="#fff" d="m139.46,35.57c-0.07,-0.4 0,-0.74 0.2,-0.81s0.47,0.21 0.54,0.61s0,0.74 -0.2,0.81s-0.47,-0.25 -0.54,-0.61z" class="cls-1"/>
  <path id="svg_219" fill="#fff" d="m138.25,35.77c-0.07,-0.4 0.07,-0.74 0.27,-0.74s0.47,0.2 0.54,0.61s0,0.74 -0.27,0.74s-0.42,-0.2 -0.54,-0.61z" class="cls-1"/>
  <path id="svg_220" fill="#fff" d="m137.11,35.93c-0.07,-0.4 0.07,-0.74 0.27,-0.74s0.47,0.27 0.54,0.61s-0.07,0.74 -0.27,0.74s-0.47,-0.16 -0.54,-0.61z" class="cls-1"/>
  <path id="svg_221" fill="#fff" d="m135.9,36.18c-0.07,-0.41 0.07,-0.74 0.27,-0.74s0.4,0.27 0.47,0.67s-0.07,0.74 -0.27,0.74s-0.4,-0.27 -0.47,-0.67z" class="cls-1"/>
  <path id="svg_222" fill="#fff" d="m134.75,36.31c-0.06,-0.4 0.14,-0.74 0.34,-0.74s0.4,0.27 0.47,0.67s-0.13,0.74 -0.33,0.74s-0.48,-0.33 -0.48,-0.67z" class="cls-1"/>
  <path id="svg_223" fill="#fff" d="m133.54,36.38c0,-0.41 0.14,-0.74 0.34,-0.74s0.4,0.27 0.47,0.67s-0.13,0.74 -0.34,0.74s-0.47,-0.27 -0.47,-0.67z" class="cls-1"/>
  <path id="svg_224" fill="#fff" d="m132.37,36.45c0,-0.41 0.14,-0.74 0.34,-0.74s0.4,0.26 0.4,0.67s-0.13,0.74 -0.33,0.74s-0.41,-0.27 -0.41,-0.67z" class="cls-1"/>
  <path id="svg_225" fill="#fff" d="m131.19,36.45a0.73,0.73 0 0 1 0.4,-0.74c0.21,0 0.41,0.33 0.41,0.67s-0.14,0.67 -0.41,0.74s-0.47,-0.27 -0.4,-0.67z" class="cls-1"/>
  <path id="svg_229" fill="#fff" d="m141.28,15.8a15.71,15.71 0 0 1 -2.36,0.74a22,22 0 0 1 0.95,3.16l2.5,-0.67l-1.09,-3.23z" class="cls-1"/>
 </g>
</svg>